<?xml version="1.0" standalone="no"?>
<!DOCTYPE svg PUBLIC "-//W3C//DTD SVG 1.1//EN" "http://www.w3.org/Graphics/SVG/1.1/DTD/svg11.dtd" >
<svg xmlns="http://www.w3.org/2000/svg" xmlns:xlink="http://www.w3.org/1999/xlink" version="1.1">
<metadata>
Created by FontForge 20141024 at Mon Dec 28 07:53:56 2015
 By Jimmy Warting
Copyright (c) 2011 by Vincenzo Vuono. All rights reserved.
</metadata>
<defs>
<font id="Gravity-Light" horiz-adv-x="574" >
  <font-face 
    font-family="Gravity Light"
    font-weight="300"
    font-stretch="normal"
    units-per-em="1000"
    panose-1="0 0 4 0 0 0 0 0 0 0"
    ascent="800"
    descent="-200"
    x-height="519"
    cap-height="718"
    bbox="-13 -245 962 959"
    underline-thickness="44"
    underline-position="-176"
    stemh="50"
    stemv="58"
    unicode-range="U+0020-F8FF"
  />
<missing-glyph horiz-adv-x="649" 
d="M536 708v-698c0 -6 -3 -10 -10 -10h-403c-6 0 -10 4 -10 10v698c0 6 4 10 10 10h403c6 0 10 -3 10 -10zM159 690l165 -306l162 306h-327zM143 62l165 298l-165 301v-599zM342 360l164 -302v603zM159 30l331 -1l-166 302z" />
    <glyph glyph-name=".notdef" horiz-adv-x="649" 
d="M536 708v-698c0 -6 -3 -10 -10 -10h-403c-6 0 -10 4 -10 10v698c0 6 4 10 10 10h403c6 0 10 -3 10 -10zM159 690l165 -306l162 306h-327zM143 62l165 298l-165 301v-599zM342 360l164 -302v603zM159 30l331 -1l-166 302z" />
    <glyph glyph-name="A" unicode="A" horiz-adv-x="619" 
d="M470 244h-321l-88 -236c-2 -5 -6 -8 -11 -8h-20c-7 0 -10 5 -8 12l264 698c2 5 6 8 11 8h25c5 0 9 -3 11 -8l264 -698c2 -7 -1 -12 -8 -12h-20c-5 0 -9 3 -11 8zM457 280l-147 394l-147 -394h294z" />
    <glyph glyph-name="Aacute" unicode="&#xc1;" horiz-adv-x="619" 
d="M413 941l-90 -106c-4 -4 -7 -6 -12 -6h-2c-8 0 -11 5 -6 12l77 106c3 4 6 6 12 6h15c9 0 11 -6 6 -12zM470 244h-321l-88 -236c-2 -5 -6 -8 -11 -8h-20c-7 0 -10 5 -8 12l264 698c2 5 6 8 11 8h25c5 0 9 -3 11 -8l264 -698c2 -7 -1 -12 -8 -12h-20c-5 0 -9 3 -11 8z
M457 280l-147 394l-147 -394h294z" />
    <glyph glyph-name="Abreve" unicode="&#x102;" horiz-adv-x="619" 
d="M309 823c-60 0 -105 31 -105 97v2c0 7 4 10 10 10h7c6 0 10 -3 10 -10v-2c0 -52 33 -71 78 -71s78 19 78 71v2c0 7 4 10 10 10h7c6 0 10 -3 10 -10v-2c0 -66 -45 -97 -105 -97zM470 244h-321l-88 -236c-2 -5 -6 -8 -11 -8h-20c-7 0 -10 5 -8 12l264 698c2 5 6 8 11 8h25
c5 0 9 -3 11 -8l264 -698c2 -7 -1 -12 -8 -12h-20c-5 0 -9 3 -11 8zM457 280l-147 394l-147 -394h294z" />
    <glyph glyph-name="Acaron" unicode="&#x1cd;" horiz-adv-x="619" 
d="M312 830h-8c-5 0 -8 2 -12 6l-84 102c-5 6 -3 12 6 12h13c6 0 9 -2 13 -6l66 -91h4l66 91c3 4 6 6 12 6h14c9 0 11 -6 6 -12l-84 -102c-4 -4 -7 -6 -12 -6zM470 244h-321l-88 -236c-2 -5 -6 -8 -11 -8h-20c-7 0 -10 5 -8 12l264 698c2 5 6 8 11 8h25c5 0 9 -3 11 -8
l264 -698c2 -7 -1 -12 -8 -12h-20c-5 0 -9 3 -11 8zM457 280l-147 394l-147 -394h294z" />
    <glyph glyph-name="Acircumflex" unicode="&#xc2;" horiz-adv-x="619" 
d="M308 926l-66 -91c-3 -4 -6 -6 -12 -6h-14c-9 0 -11 6 -6 12l84 102c4 4 7 6 12 6h8c5 0 8 -2 12 -6l84 -102c5 -6 3 -12 -6 -12h-13c-6 0 -9 2 -13 6l-66 91h-4zM470 244h-321l-88 -236c-2 -5 -6 -8 -11 -8h-20c-7 0 -10 5 -8 12l264 698c2 5 6 8 11 8h25c5 0 9 -3 11 -8
l264 -698c2 -7 -1 -12 -8 -12h-20c-5 0 -9 3 -11 8zM457 280l-147 394l-147 -394h294z" />
    <glyph glyph-name="Adieresis" unicode="&#xc4;" horiz-adv-x="619" 
d="M279 924v-52c0 -6 -3 -10 -10 -10h-9c-6 0 -10 4 -10 10v52c0 7 4 10 10 10h9c6 0 10 -3 10 -10zM399 924v-52c0 -6 -3 -10 -10 -10h-9c-6 0 -10 4 -10 10v52c0 7 4 10 10 10h9c6 0 10 -3 10 -10zM470 244h-321l-88 -236c-2 -5 -6 -8 -11 -8h-20c-7 0 -10 5 -8 12
l264 698c2 5 6 8 11 8h25c5 0 9 -3 11 -8l264 -698c2 -7 -1 -12 -8 -12h-20c-5 0 -9 3 -11 8zM457 280l-147 394l-147 -394h294z" />
    <glyph glyph-name="Agrave" unicode="&#xc0;" horiz-adv-x="619" 
d="M313 829h-2c-5 0 -8 2 -12 6l-90 106c-5 6 -3 12 6 12h15c6 0 9 -2 12 -6l77 -106c5 -7 2 -12 -6 -12zM470 244h-321l-88 -236c-2 -5 -6 -8 -11 -8h-20c-7 0 -10 5 -8 12l264 698c2 5 6 8 11 8h25c5 0 9 -3 11 -8l264 -698c2 -7 -1 -12 -8 -12h-20c-5 0 -9 3 -11 8z
M457 280l-147 394l-147 -394h294z" />
    <glyph glyph-name="Amacron" unicode="&#x100;" horiz-adv-x="619" 
d="M401 890v-6c0 -6 -3 -10 -10 -10h-164c-7 0 -10 4 -10 10v6c0 7 4 10 10 10h164c7 0 10 -3 10 -10zM470 244h-321l-88 -236c-2 -5 -6 -8 -11 -8h-20c-7 0 -10 5 -8 12l264 698c2 5 6 8 11 8h25c5 0 9 -3 11 -8l264 -698c2 -7 -1 -12 -8 -12h-20c-5 0 -9 3 -11 8zM457 280
l-147 394l-147 -394h294z" />
    <glyph glyph-name="Aring" unicode="&#xc5;" horiz-adv-x="619" 
d="M310 811c-40 0 -74 29 -74 74c0 44 34 73 74 73s73 -29 73 -73c0 -45 -33 -74 -73 -74zM310 936c-28 0 -51 -20 -51 -51s23 -51 51 -51s51 20 51 51s-23 51 -51 51zM470 244h-321l-88 -236c-2 -5 -6 -8 -11 -8h-20c-7 0 -10 5 -8 12l264 698c2 5 6 8 11 8h25
c5 0 9 -3 11 -8l264 -698c2 -7 -1 -12 -8 -12h-20c-5 0 -9 3 -11 8zM457 280l-147 394l-147 -394h294z" />
    <glyph glyph-name="Atilde" unicode="&#xc3;" horiz-adv-x="619" 
d="M259 901c-22 0 -31 -18 -33 -41c0 -7 -3 -10 -10 -10h-5c-6 0 -10 4 -10 10c3 36 20 67 58 67c52 0 67 -65 108 -65c22 0 29 16 30 41c0 6 3 10 10 10h5c6 0 10 -4 10 -10c-3 -38 -19 -67 -55 -67c-53 0 -67 65 -108 65zM470 244h-321l-88 -236c-2 -5 -6 -8 -11 -8h-20
c-7 0 -10 5 -8 12l264 698c2 5 6 8 11 8h25c5 0 9 -3 11 -8l264 -698c2 -7 -1 -12 -8 -12h-20c-5 0 -9 3 -11 8zM457 280l-147 394l-147 -394h294z" />
    <glyph glyph-name="AE" unicode="&#xc6;" horiz-adv-x="884" 
d="M486 34l339 1c6 0 10 -4 10 -10v-16c0 -6 -4 -10 -10 -10l-368 1c-7 0 -10 3 -10 10v234h-247l-136 -237c-3 -5 -6 -7 -12 -7h-20c-8 0 -11 5 -7 12l401 700c3 5 6 7 12 7l383 1c6 0 10 -4 10 -10v-16c0 -6 -4 -10 -10 -10l-336 1v-288h272c6 0 10 -3 10 -10v-15
c0 -6 -3 -10 -10 -10h-272zM448 280v395l-227 -395h227z" />
    <glyph glyph-name="B" unicode="B" horiz-adv-x="636" 
d="M449 384c88 -26 138 -94 138 -184c0 -116 -82 -200 -212 -200h-288c-6 0 -10 4 -10 10l2 698c0 7 3 10 10 10h256c123 0 198 -73 198 -176c0 -70 -33 -128 -94 -158zM116 684v-289h228c101 0 162 60 162 145s-62 144 -166 144h-224zM116 34h256c110 0 178 67 178 164
s-70 163 -182 163h-252v-327z" />
    <glyph glyph-name="C" unicode="C" horiz-adv-x="700" 
d="M371 726c123 0 220 -65 267 -172c3 -7 0 -12 -8 -12h-17c-5 0 -9 2 -12 7c-45 87 -127 142 -232 142c-168 0 -283 -131 -283 -330c0 -197 115 -333 280 -333c116 0 202 59 245 167c2 6 6 8 11 8h18c7 0 10 -5 8 -12c-45 -120 -145 -198 -284 -198
c-187 0 -315 153 -315 366c0 218 135 367 322 367z" />
    <glyph glyph-name="Cacute" unicode="&#x106;" horiz-adv-x="700" 
d="M453 940l-90 -106c-4 -4 -7 -6 -12 -6h-2c-8 0 -11 5 -6 12l77 106c3 4 6 6 12 6h15c9 0 11 -6 6 -12zM371 726c123 0 220 -65 267 -172c3 -7 0 -12 -8 -12h-17c-5 0 -9 2 -12 7c-45 87 -127 142 -232 142c-168 0 -283 -131 -283 -330c0 -197 115 -333 280 -333
c116 0 202 59 245 167c2 6 6 8 11 8h18c7 0 10 -5 8 -12c-45 -120 -145 -198 -284 -198c-187 0 -315 153 -315 366c0 218 135 367 322 367z" />
    <glyph glyph-name="Ccaron" unicode="&#x10c;" horiz-adv-x="700" 
d="M353 829h-8c-5 0 -8 2 -12 6l-84 102c-5 6 -3 12 6 12h13c6 0 9 -2 13 -6l66 -91h4l66 91c3 4 6 6 12 6h14c9 0 11 -6 6 -12l-84 -102c-4 -4 -7 -6 -12 -6zM622 203h18c7 0 10 -5 8 -12c-45 -120 -145 -198 -284 -198c-187 0 -315 153 -315 366c0 218 135 367 322 367
c123 0 220 -65 267 -172c3 -7 0 -12 -8 -12h-17c-5 0 -9 2 -12 7c-45 87 -127 142 -232 142c-168 0 -283 -131 -283 -330c0 -197 115 -333 280 -333c116 0 202 59 245 167c2 6 6 8 11 8z" />
    <glyph glyph-name="Ccedilla" unicode="&#xc7;" horiz-adv-x="700" 
d="M622 203h18c7 0 10 -5 8 -12c-45 -120 -145 -197 -283 -198l-19 -61c53 -6 96 -31 96 -84c0 -46 -33 -84 -95 -84c-22 0 -45 5 -69 17c-5 2 -7 7 -5 13l1 3c3 6 7 8 13 5c20 -9 44 -13 61 -13c42 0 67 23 67 57c0 37 -30 62 -90 65c-8 0 -11 4 -9 11l21 72
c-172 14 -288 162 -288 365c0 218 135 367 322 367c123 0 220 -65 267 -172c3 -7 0 -12 -8 -12h-17c-5 0 -9 2 -12 7c-45 87 -127 142 -232 142c-168 0 -283 -131 -283 -330c0 -197 115 -333 280 -333c116 0 202 59 245 167c2 6 6 8 11 8z" />
    <glyph glyph-name="Cdotaccent" unicode="&#x10a;" horiz-adv-x="700" 
d="M368 923v-52c0 -6 -3 -10 -10 -10h-17c-7 0 -10 4 -10 10v52c0 7 4 10 10 10h17c7 0 10 -3 10 -10zM371 726c123 0 220 -65 267 -172c3 -7 0 -12 -8 -12h-17c-5 0 -9 2 -12 7c-45 87 -127 142 -232 142c-168 0 -283 -131 -283 -330c0 -197 115 -333 280 -333
c116 0 202 59 245 167c2 6 6 8 11 8h18c7 0 10 -5 8 -12c-45 -120 -145 -198 -284 -198c-187 0 -315 153 -315 366c0 218 135 367 322 367z" />
    <glyph glyph-name="D" unicode="D" horiz-adv-x="674" 
d="M89 718h215c201 0 321 -141 321 -349c0 -214 -125 -369 -327 -369h-211c-6 0 -10 4 -10 10l2 698c0 7 3 10 10 10zM117 35h176c178 0 295 136 295 331c0 193 -112 318 -289 318h-183z" />
    <glyph glyph-name="Eth" unicode="&#xd0;" horiz-adv-x="674" 
d="M89 718h215c201 0 321 -141 321 -349c0 -214 -125 -369 -327 -369h-211c-6 0 -10 4 -10 10l1 260h-5c-6 0 -10 4 -10 10v13c0 7 4 10 10 10h5l1 405c0 7 3 10 10 10zM117 35h176c178 0 295 136 295 331c0 193 -112 318 -289 318h-183l1 -381h232c6 0 10 -3 10 -10v-13
c0 -7 -4 -10 -10 -10h-232v-235z" />
    <glyph glyph-name="Dcaron" unicode="&#x10e;" horiz-adv-x="674" 
d="M291 829h-8c-5 0 -8 2 -12 6l-84 102c-5 6 -3 12 6 12h13c6 0 9 -2 13 -6l66 -91h4l66 91c3 4 6 6 12 6h14c9 0 11 -6 6 -12l-84 -102c-4 -4 -7 -6 -12 -6zM89 718h215c201 0 321 -141 321 -349c0 -214 -125 -369 -327 -369h-211c-6 0 -10 4 -10 10l2 698c0 7 3 10 10 10
zM117 35h176c178 0 295 136 295 331c0 193 -112 318 -289 318h-183z" />
    <glyph glyph-name="E" unicode="E" horiz-adv-x="564" 
d="M117 35h388c7 0 10 -3 10 -10v-15c0 -6 -3 -10 -10 -10h-418c-6 0 -10 4 -10 10l2 698c0 7 3 10 10 10h412c6 0 10 -3 10 -10v-15c0 -6 -3 -10 -10 -10h-385v-286h322c7 0 10 -3 10 -10v-15c0 -6 -4 -10 -10 -10h-322z" />
    <glyph glyph-name="Eacute" unicode="&#xc9;" horiz-adv-x="564" 
d="M379 941l-90 -106c-4 -4 -7 -6 -12 -6h-2c-8 0 -11 5 -6 12l77 106c3 4 6 6 12 6h15c9 0 11 -6 6 -12zM117 35h388c7 0 10 -3 10 -10v-15c0 -6 -3 -10 -10 -10h-418c-6 0 -10 4 -10 10l2 698c0 7 3 10 10 10h412c6 0 10 -3 10 -10v-15c0 -6 -3 -10 -10 -10h-385v-286h322
c7 0 10 -3 10 -10v-15c0 -6 -4 -10 -10 -10h-322z" />
    <glyph glyph-name="Ecaron" unicode="&#x11a;" horiz-adv-x="564" 
d="M278 830h-8c-5 0 -8 2 -12 6l-84 102c-5 6 -3 12 6 12h13c6 0 9 -2 13 -6l66 -91h4l66 91c3 4 6 6 12 6h14c9 0 11 -6 6 -12l-84 -102c-4 -4 -7 -6 -12 -6zM117 35h388c7 0 10 -3 10 -10v-15c0 -6 -3 -10 -10 -10h-418c-6 0 -10 4 -10 10l2 698c0 7 3 10 10 10h412
c6 0 10 -3 10 -10v-15c0 -6 -3 -10 -10 -10h-385v-286h322c7 0 10 -3 10 -10v-15c0 -6 -4 -10 -10 -10h-322z" />
    <glyph glyph-name="Ecircumflex" unicode="&#xca;" horiz-adv-x="564" 
d="M274 926l-66 -91c-3 -4 -6 -6 -12 -6h-14c-9 0 -11 6 -6 12l84 102c4 4 7 6 12 6h8c5 0 8 -2 12 -6l84 -102c5 -6 3 -12 -6 -12h-13c-6 0 -9 2 -13 6l-66 91h-4zM117 35h388c7 0 10 -3 10 -10v-15c0 -6 -3 -10 -10 -10h-418c-6 0 -10 4 -10 10l2 698c0 7 3 10 10 10h412
c6 0 10 -3 10 -10v-15c0 -6 -3 -10 -10 -10h-385v-286h322c7 0 10 -3 10 -10v-15c0 -6 -4 -10 -10 -10h-322z" />
    <glyph glyph-name="Edieresis" unicode="&#xcb;" horiz-adv-x="564" 
d="M245 924v-52c0 -6 -3 -10 -10 -10h-9c-6 0 -10 4 -10 10v52c0 7 4 10 10 10h9c6 0 10 -3 10 -10zM365 924v-52c0 -6 -3 -10 -10 -10h-9c-6 0 -10 4 -10 10v52c0 7 4 10 10 10h9c6 0 10 -3 10 -10zM117 35h388c7 0 10 -3 10 -10v-15c0 -6 -3 -10 -10 -10h-418
c-6 0 -10 4 -10 10l2 698c0 7 3 10 10 10h412c6 0 10 -3 10 -10v-15c0 -6 -3 -10 -10 -10h-385v-286h322c7 0 10 -3 10 -10v-15c0 -6 -4 -10 -10 -10h-322z" />
    <glyph glyph-name="Edotaccent" unicode="&#x116;" horiz-adv-x="564" 
d="M294 924v-52c0 -6 -3 -10 -10 -10h-17c-7 0 -10 4 -10 10v52c0 7 4 10 10 10h17c7 0 10 -3 10 -10zM117 35h388c7 0 10 -3 10 -10v-15c0 -6 -3 -10 -10 -10h-418c-6 0 -10 4 -10 10l2 698c0 7 3 10 10 10h412c6 0 10 -3 10 -10v-15c0 -6 -3 -10 -10 -10h-385v-286h322
c7 0 10 -3 10 -10v-15c0 -6 -4 -10 -10 -10h-322z" />
    <glyph glyph-name="Egrave" unicode="&#xc8;" horiz-adv-x="564" 
d="M279 829h-2c-5 0 -8 2 -12 6l-90 106c-5 6 -3 12 6 12h15c6 0 9 -2 12 -6l77 -106c5 -7 2 -12 -6 -12zM117 35h388c7 0 10 -3 10 -10v-15c0 -6 -3 -10 -10 -10h-418c-6 0 -10 4 -10 10l2 698c0 7 3 10 10 10h412c6 0 10 -3 10 -10v-15c0 -6 -3 -10 -10 -10h-385v-286h322
c7 0 10 -3 10 -10v-15c0 -6 -4 -10 -10 -10h-322z" />
    <glyph glyph-name="Emacron" unicode="&#x112;" horiz-adv-x="564" 
d="M367 890v-6c0 -6 -3 -10 -10 -10h-164c-7 0 -10 4 -10 10v6c0 7 4 10 10 10h164c7 0 10 -3 10 -10zM117 35h388c7 0 10 -3 10 -10v-15c0 -6 -3 -10 -10 -10h-418c-6 0 -10 4 -10 10l2 698c0 7 3 10 10 10h412c6 0 10 -3 10 -10v-15c0 -6 -3 -10 -10 -10h-385v-286h322
c7 0 10 -3 10 -10v-15c0 -6 -4 -10 -10 -10h-322z" />
    <glyph glyph-name="F" unicode="F" horiz-adv-x="556" 
d="M116 683v-297h318c7 0 10 -3 10 -10v-16c0 -6 -4 -10 -10 -10h-317v-340c0 -6 -4 -10 -10 -10h-20c-6 0 -10 4 -10 10l2 698c0 7 3 10 10 10h408c6 0 10 -3 10 -10v-15c0 -6 -4 -10 -10 -10h-381z" />
    <glyph glyph-name="G" unicode="G" horiz-adv-x="741" 
d="M436 330l231 1c6 0 9 -4 9 -9c-1 -210 -135 -329 -308 -329c-186 0 -314 153 -314 367c0 217 135 366 322 366c125 0 223 -66 267 -167c3 -6 0 -11 -7 -11l-18 -1c-5 0 -9 2 -12 7c-43 83 -125 137 -232 137c-165 0 -283 -131 -283 -330c0 -197 115 -333 280 -333
c137 0 257 89 267 267l-202 1c-7 0 -10 3 -10 10v14c0 7 3 10 10 10z" />
    <glyph glyph-name="Gbreve" unicode="&#x11e;" horiz-adv-x="741" 
d="M374 822c-60 0 -105 31 -105 97v2c0 7 4 10 10 10h7c6 0 10 -3 10 -10v-2c0 -52 33 -71 78 -71s78 19 78 71v2c0 7 4 10 10 10h7c6 0 10 -3 10 -10v-2c0 -66 -45 -97 -105 -97zM436 330l231 1c6 0 9 -4 9 -9c-1 -210 -135 -329 -308 -329c-186 0 -314 153 -314 367
c0 217 135 366 322 366c125 0 223 -66 267 -167c3 -6 0 -11 -7 -11l-18 -1c-5 0 -9 2 -12 7c-43 83 -125 137 -232 137c-165 0 -283 -131 -283 -330c0 -197 115 -333 280 -333c137 0 257 89 267 267l-202 1c-7 0 -10 3 -10 10v14c0 7 3 10 10 10z" />
    <glyph glyph-name="Gdotaccent" unicode="&#x120;" horiz-adv-x="741" 
d="M393 923v-52c0 -6 -3 -10 -10 -10h-17c-7 0 -10 4 -10 10v52c0 7 4 10 10 10h17c7 0 10 -3 10 -10zM436 330l231 1c6 0 9 -4 9 -9c-1 -210 -135 -329 -308 -329c-186 0 -314 153 -314 367c0 217 135 366 322 366c125 0 223 -66 267 -167c3 -6 0 -11 -7 -11l-18 -1
c-5 0 -9 2 -12 7c-43 83 -125 137 -232 137c-165 0 -283 -131 -283 -330c0 -197 115 -333 280 -333c137 0 257 89 267 267l-202 1c-7 0 -10 3 -10 10v14c0 7 3 10 10 10z" />
    <glyph glyph-name="H" unicode="H" horiz-adv-x="684" 
d="M597 0h-20c-6 0 -10 4 -10 10l1 352h-452l1 -352c0 -6 -4 -10 -10 -10h-20c-6 0 -10 4 -10 10l2 698c0 7 3 10 10 10h16c7 0 10 -3 10 -10l1 -311h452l1 311c0 7 3 10 10 10h16c7 0 10 -3 10 -10l2 -698c0 -6 -4 -10 -10 -10z" />
    <glyph glyph-name="I" unicode="I" horiz-adv-x="314" 
d="M176 708l1 -698c0 -6 -4 -10 -10 -10h-20c-6 0 -10 4 -10 10l2 698c0 7 3 10 10 10h17c7 0 10 -3 10 -10z" />
    <glyph glyph-name="Iacute" unicode="&#xcd;" horiz-adv-x="314" 
d="M261 941l-90 -106c-4 -4 -7 -6 -12 -6h-2c-8 0 -11 5 -6 12l77 106c3 4 6 6 12 6h15c9 0 11 -6 6 -12zM176 708l1 -698c0 -6 -4 -10 -10 -10h-20c-6 0 -10 4 -10 10l2 698c0 7 3 10 10 10h17c7 0 10 -3 10 -10z" />
    <glyph glyph-name="Icaron" unicode="&#x1cf;" horiz-adv-x="314" 
d="M160 830h-8c-5 0 -8 2 -12 6l-84 102c-5 6 -3 12 6 12h13c6 0 9 -2 13 -6l66 -91h4l66 91c3 4 6 6 12 6h14c9 0 11 -6 6 -12l-84 -102c-4 -4 -7 -6 -12 -6zM149 718h17c7 0 10 -3 10 -10l1 -698c0 -6 -4 -10 -10 -10h-20c-6 0 -10 4 -10 10l2 698c0 7 3 10 10 10z" />
    <glyph glyph-name="Icircumflex" unicode="&#xce;" horiz-adv-x="314" 
d="M174 943l84 -102c5 -6 3 -12 -6 -12h-13c-6 0 -9 2 -13 6l-66 91h-4l-66 -91c-3 -4 -6 -6 -12 -6h-14c-9 0 -11 6 -6 12l84 102c4 4 7 6 12 6h8c5 0 8 -2 12 -6zM149 718h17c7 0 10 -3 10 -10l1 -698c0 -6 -4 -10 -10 -10h-20c-6 0 -10 4 -10 10l2 698c0 7 3 10 10 10z
" />
    <glyph glyph-name="Idieresis" unicode="&#xcf;" horiz-adv-x="314" 
d="M127 924v-52c0 -6 -3 -10 -10 -10h-9c-6 0 -10 4 -10 10v52c0 7 4 10 10 10h9c6 0 10 -3 10 -10zM247 924v-52c0 -6 -3 -10 -10 -10h-9c-6 0 -10 4 -10 10v52c0 7 4 10 10 10h9c6 0 10 -3 10 -10zM176 708l1 -698c0 -6 -4 -10 -10 -10h-20c-6 0 -10 4 -10 10l2 698
c0 7 3 10 10 10h17c7 0 10 -3 10 -10z" />
    <glyph glyph-name="Idotaccent" unicode="&#x130;" horiz-adv-x="314" 
d="M176 924v-52c0 -6 -3 -10 -10 -10h-17c-7 0 -10 4 -10 10v52c0 7 4 10 10 10h17c7 0 10 -3 10 -10zM176 708l1 -698c0 -6 -4 -10 -10 -10h-20c-6 0 -10 4 -10 10l2 698c0 7 3 10 10 10h17c7 0 10 -3 10 -10z" />
    <glyph glyph-name="Igrave" unicode="&#xcc;" horiz-adv-x="314" 
d="M63 953h15c6 0 9 -2 12 -6l77 -106c5 -7 2 -12 -6 -12h-2c-5 0 -8 2 -12 6l-90 106c-5 6 -3 12 6 12zM176 708l1 -698c0 -6 -4 -10 -10 -10h-20c-6 0 -10 4 -10 10l2 698c0 7 3 10 10 10h17c7 0 10 -3 10 -10z" />
    <glyph glyph-name="Imacron" unicode="&#x12a;" horiz-adv-x="314" 
d="M249 890v-6c0 -6 -3 -10 -10 -10h-164c-7 0 -10 4 -10 10v6c0 7 4 10 10 10h164c7 0 10 -3 10 -10zM176 708l1 -698c0 -6 -4 -10 -10 -10h-20c-6 0 -10 4 -10 10l2 698c0 7 3 10 10 10h17c7 0 10 -3 10 -10z" />
    <glyph glyph-name="J" unicode="J" horiz-adv-x="453" 
d="M316 709l1 -442c0 -167 -53 -262 -258 -267c-6 0 -10 4 -10 10v16c0 7 4 10 10 10c183 4 218 89 219 229l1 444c0 7 3 10 10 10h17c7 0 10 -3 10 -10z" />
    <glyph glyph-name="K" unicode="K" horiz-adv-x="647" 
d="M236 400l-144 -133l1 -257c0 -6 -4 -10 -10 -10h-21c-6 0 -10 4 -10 10l2 698c0 7 3 10 10 10h17c7 0 10 -3 10 -10l1 -394l440 399c3 4 7 5 12 5h21c9 0 11 -6 5 -12l-307 -282l337 -412c5 -6 3 -12 -6 -12h-26c-5 0 -8 2 -12 6z" />
    <glyph glyph-name="L" unicode="L" horiz-adv-x="542" 
d="M117 35h387c6 0 10 -3 10 -10v-15c0 -6 -3 -10 -10 -10h-417c-6 0 -10 4 -10 10l2 698c0 7 3 10 10 10h17c7 0 10 -3 10 -10z" />
    <glyph glyph-name="Lacute" unicode="&#x139;" horiz-adv-x="542" 
d="M202 941l-90 -106c-4 -4 -7 -6 -12 -6h-2c-8 0 -11 5 -6 12l77 106c3 4 6 6 12 6h15c9 0 11 -6 6 -12zM117 35h387c6 0 10 -3 10 -10v-15c0 -6 -3 -10 -10 -10h-417c-6 0 -10 4 -10 10l2 698c0 7 3 10 10 10h17c7 0 10 -3 10 -10z" />
    <glyph glyph-name="Lcaron" unicode="&#x13d;" horiz-adv-x="542" 
d="M117 35h387c6 0 10 -3 10 -10v-15c0 -6 -3 -10 -10 -10h-417c-6 0 -10 4 -10 10l2 698c0 7 3 10 10 10h17c7 0 10 -3 10 -10z" />
    <glyph glyph-name="M" unicode="M" horiz-adv-x="834" 
d="M747 0h-20c-7 0 -10 3 -10 10l-9 678l-266 -680c-2 -6 -6 -8 -11 -8h-27c-5 0 -9 2 -11 8l-267 680l-10 -678c0 -7 -3 -10 -10 -10h-19c-6 0 -10 4 -10 10l15 698c0 7 3 10 10 10h40c5 0 9 -2 11 -8l265 -666l264 666c2 6 6 8 11 8h39c7 0 10 -3 10 -10l15 -698
c0 -6 -4 -10 -10 -10z" />
    <glyph glyph-name="N" unicode="N" horiz-adv-x="680" 
d="M602 708l1 -698c0 -6 -4 -10 -10 -10h-37c-6 0 -9 2 -12 7l-429 679l2 -676c0 -6 -4 -10 -10 -10h-20c-6 0 -10 4 -10 10l2 698c0 7 3 10 10 10h39c6 0 9 -2 12 -7l423 -667l2 664c0 7 3 10 10 10h17c7 0 10 -3 10 -10z" />
    <glyph glyph-name="Nacute" unicode="&#x143;" horiz-adv-x="680" 
d="M444 942l-90 -106c-4 -4 -7 -6 -12 -6h-2c-8 0 -11 5 -6 12l77 106c3 4 6 6 12 6h15c9 0 11 -6 6 -12zM602 708l1 -698c0 -6 -4 -10 -10 -10h-37c-6 0 -9 2 -12 7l-429 679l2 -676c0 -6 -4 -10 -10 -10h-20c-6 0 -10 4 -10 10l2 698c0 7 3 10 10 10h39c6 0 9 -2 12 -7
l423 -667l2 664c0 7 3 10 10 10h17c7 0 10 -3 10 -10z" />
    <glyph glyph-name="Ncaron" unicode="&#x147;" horiz-adv-x="680" 
d="M343 831h-8c-5 0 -8 2 -12 6l-84 102c-5 6 -3 12 6 12h13c6 0 9 -2 13 -6l66 -91h4l66 91c3 4 6 6 12 6h14c9 0 11 -6 6 -12l-84 -102c-4 -4 -7 -6 -12 -6zM602 708l1 -698c0 -6 -4 -10 -10 -10h-37c-6 0 -9 2 -12 7l-429 679l2 -676c0 -6 -4 -10 -10 -10h-20
c-6 0 -10 4 -10 10l2 698c0 7 3 10 10 10h39c6 0 9 -2 12 -7l423 -667l2 664c0 7 3 10 10 10h17c7 0 10 -3 10 -10z" />
    <glyph glyph-name="Ntilde" unicode="&#xd1;" horiz-adv-x="680" 
d="M290 902c-22 0 -31 -18 -33 -41c0 -7 -3 -10 -10 -10h-5c-6 0 -10 4 -10 10c3 36 20 67 58 67c52 0 67 -65 108 -65c22 0 29 16 30 41c0 6 3 10 10 10h5c6 0 10 -4 10 -10c-3 -38 -19 -67 -55 -67c-53 0 -67 65 -108 65zM602 708l1 -698c0 -6 -4 -10 -10 -10h-37
c-6 0 -9 2 -12 7l-429 679l2 -676c0 -6 -4 -10 -10 -10h-20c-6 0 -10 4 -10 10l2 698c0 7 3 10 10 10h39c6 0 9 -2 12 -7l423 -667l2 664c0 7 3 10 10 10h17c7 0 10 -3 10 -10z" />
    <glyph glyph-name="O" unicode="O" horiz-adv-x="736" 
d="M372 726c186 0 315 -145 315 -357c0 -219 -136 -376 -323 -376c-185 0 -315 153 -315 367c0 217 135 366 323 366zM370 691c-165 0 -284 -131 -284 -330c0 -197 115 -333 279 -333c166 0 284 138 284 338c0 197 -114 325 -279 325z" />
    <glyph glyph-name="Oacute" unicode="&#xd3;" horiz-adv-x="736" 
d="M471 942l-90 -106c-4 -4 -7 -6 -12 -6h-2c-8 0 -11 5 -6 12l77 106c3 4 6 6 12 6h15c9 0 11 -6 6 -12zM372 726c186 0 315 -145 315 -357c0 -219 -136 -376 -323 -376c-185 0 -315 153 -315 367c0 217 135 366 323 366zM370 691c-165 0 -284 -131 -284 -330
c0 -197 115 -333 279 -333c166 0 284 138 284 338c0 197 -114 325 -279 325z" />
    <glyph glyph-name="Ocaron" unicode="&#x1d1;" horiz-adv-x="736" 
d="M371 831h-8c-5 0 -8 2 -12 6l-84 102c-5 6 -3 12 6 12h13c6 0 9 -2 13 -6l66 -91h4l66 91c3 4 6 6 12 6h14c9 0 11 -6 6 -12l-84 -102c-4 -4 -7 -6 -12 -6zM372 726c186 0 315 -145 315 -357c0 -219 -136 -376 -323 -376c-185 0 -315 153 -315 367c0 217 135 366 323 366
zM365 28c166 0 284 138 284 338c0 197 -114 325 -279 325s-284 -131 -284 -330c0 -197 115 -333 279 -333z" />
    <glyph glyph-name="Ocircumflex" unicode="&#xd4;" horiz-adv-x="736" 
d="M366 927l-66 -91c-3 -4 -6 -6 -12 -6h-14c-9 0 -11 6 -6 12l84 102c4 4 7 6 12 6h8c5 0 8 -2 12 -6l84 -102c5 -6 3 -12 -6 -12h-13c-6 0 -9 2 -13 6l-66 91h-4zM372 726c186 0 315 -145 315 -357c0 -219 -136 -376 -323 -376c-185 0 -315 153 -315 367
c0 217 135 366 323 366zM365 28c166 0 284 138 284 338c0 197 -114 325 -279 325s-284 -131 -284 -330c0 -197 115 -333 279 -333z" />
    <glyph glyph-name="Odieresis" unicode="&#xd6;" horiz-adv-x="736" 
d="M337 925v-52c0 -6 -3 -10 -10 -10h-9c-6 0 -10 4 -10 10v52c0 7 4 10 10 10h9c6 0 10 -3 10 -10zM457 925v-52c0 -6 -3 -10 -10 -10h-9c-6 0 -10 4 -10 10v52c0 7 4 10 10 10h9c6 0 10 -3 10 -10zM372 726c186 0 315 -145 315 -357c0 -219 -136 -376 -323 -376
c-185 0 -315 153 -315 367c0 217 135 366 323 366zM370 691c-165 0 -284 -131 -284 -330c0 -197 115 -333 279 -333c166 0 284 138 284 338c0 197 -114 325 -279 325z" />
    <glyph glyph-name="Ograve" unicode="&#xd2;" horiz-adv-x="736" 
d="M273 954h15c6 0 9 -2 12 -6l77 -106c5 -7 2 -12 -6 -12h-2c-5 0 -8 2 -12 6l-90 106c-5 6 -3 12 6 12zM372 726c186 0 315 -145 315 -357c0 -219 -136 -376 -323 -376c-185 0 -315 153 -315 367c0 217 135 366 323 366zM370 691c-165 0 -284 -131 -284 -330
c0 -197 115 -333 279 -333c166 0 284 138 284 338c0 197 -114 325 -279 325z" />
    <glyph glyph-name="Ohungarumlaut" unicode="&#x150;" horiz-adv-x="736" 
d="M450 926l-90 -106c-4 -4 -7 -6 -12 -6h-2c-8 0 -11 5 -6 12l77 106c3 4 6 6 12 6h15c9 0 11 -6 6 -12zM571 926l-90 -106c-4 -4 -7 -6 -12 -6h-2c-8 0 -11 5 -6 12l77 106c3 4 6 6 12 6h15c9 0 11 -6 6 -12zM372 726c186 0 315 -145 315 -357c0 -219 -136 -376 -323 -376
c-185 0 -315 153 -315 367c0 217 135 366 323 366zM370 691c-165 0 -284 -131 -284 -330c0 -197 115 -333 279 -333c166 0 284 138 284 338c0 197 -114 325 -279 325z" />
    <glyph glyph-name="Omacron" unicode="&#x14c;" horiz-adv-x="736" 
d="M459 891v-6c0 -6 -3 -10 -10 -10h-164c-7 0 -10 4 -10 10v6c0 7 4 10 10 10h164c7 0 10 -3 10 -10zM372 726c186 0 315 -145 315 -357c0 -219 -136 -376 -323 -376c-185 0 -315 153 -315 367c0 217 135 366 323 366zM370 691c-165 0 -284 -131 -284 -330
c0 -197 115 -333 279 -333c166 0 284 138 284 338c0 197 -114 325 -279 325z" />
    <glyph glyph-name="Oslash" unicode="&#xd8;" horiz-adv-x="747" 
d="M686 719l-78 -95c55 -62 86 -150 86 -255c0 -219 -136 -376 -323 -376c-84 0 -157 32 -211 86l-60 -73c-4 -4 -7 -6 -12 -6h-19c-9 0 -11 6 -6 12l75 92c-52 64 -82 153 -82 256c0 217 135 366 323 366c82 0 153 -28 207 -78l63 77c4 4 7 6 12 6h19c9 0 11 -6 6 -12z
M93 361c0 -92 25 -171 69 -229l400 488c-47 45 -111 71 -184 71c-166 0 -285 -131 -285 -330zM657 366c0 95 -27 173 -72 230l-402 -489c48 -50 113 -79 189 -79c166 0 285 138 285 338z" />
    <glyph glyph-name="Otilde" unicode="&#xd5;" horiz-adv-x="736" 
d="M317 928c52 0 67 -65 108 -65c22 0 29 16 30 41c0 6 3 10 10 10h5c6 0 10 -4 10 -10c-3 -38 -19 -67 -55 -67c-53 0 -67 65 -108 65c-22 0 -31 -18 -33 -41c0 -7 -3 -10 -10 -10h-5c-6 0 -10 4 -10 10c3 36 20 67 58 67zM372 726c186 0 315 -145 315 -357
c0 -219 -136 -376 -323 -376c-185 0 -315 153 -315 367c0 217 135 366 323 366zM370 691c-165 0 -284 -131 -284 -330c0 -197 115 -333 279 -333c166 0 284 138 284 338c0 197 -114 325 -279 325z" />
    <glyph glyph-name="OE" unicode="&#x152;" horiz-adv-x="877" 
d="M480 34l338 1c6 0 10 -4 10 -10v-16c0 -6 -4 -10 -10 -10l-443 1c-196 0 -326 150 -326 360c0 212 137 358 334 358h58v1l373 1c6 0 10 -4 10 -10v-16c0 -6 -4 -10 -10 -10l-336 1l1 -288h271c7 0 10 -3 10 -10v-15c0 -6 -3 -10 -10 -10h-271zM439 35l2 649h-58
c-176 0 -297 -128 -297 -323c0 -193 117 -326 291 -326h62z" />
    <glyph glyph-name="P" unicode="P" horiz-adv-x="606" 
d="M89 718h253c132 0 216 -81 216 -197c0 -118 -84 -204 -216 -204h-225v-307c0 -6 -4 -10 -10 -10h-20c-6 0 -10 4 -10 10l2 698c0 7 3 10 10 10zM116 352h223c112 0 181 68 181 166c0 99 -71 166 -181 166h-223v-332z" />
    <glyph glyph-name="Q" unicode="Q" horiz-adv-x="736" 
d="M687 369c0 -131 -49 -239 -127 -306l61 -73c4 -5 3 -10 -1 -15l-11 -10c-5 -4 -10 -3 -14 2l-63 76c-48 -32 -105 -50 -168 -50c-185 0 -315 153 -315 367c0 217 135 366 323 366c186 0 315 -145 315 -357zM365 28c54 0 104 15 145 42l-64 77c-4 5 -3 10 2 14l10 9
c5 4 10 3 14 -2l65 -78c70 59 112 156 112 276c0 197 -114 325 -279 325s-284 -131 -284 -330c0 -197 115 -333 279 -333z" />
    <glyph glyph-name="R" unicode="R" horiz-adv-x="619" 
d="M313 350h-196v-340c0 -6 -4 -10 -10 -10h-20c-6 0 -10 4 -10 10l2 698c0 7 3 10 10 10h257c130 0 209 -75 209 -182c0 -104 -74 -181 -198 -186l235 -338c4 -7 1 -12 -7 -12h-26c-6 0 -9 2 -12 6zM116 384h226c111 0 176 61 176 150s-67 150 -176 150h-226v-300z" />
    <glyph glyph-name="Racute" unicode="&#x154;" horiz-adv-x="619" 
d="M420 940l-90 -106c-4 -4 -7 -6 -12 -6h-2c-8 0 -11 5 -6 12l77 106c3 4 6 6 12 6h15c9 0 11 -6 6 -12zM313 350h-196v-340c0 -6 -4 -10 -10 -10h-20c-6 0 -10 4 -10 10l2 698c0 7 3 10 10 10h257c130 0 209 -75 209 -182c0 -104 -74 -181 -198 -186l235 -338
c4 -7 1 -12 -7 -12h-26c-6 0 -9 2 -12 6zM116 384h226c111 0 176 61 176 150s-67 150 -176 150h-226v-300z" />
    <glyph glyph-name="Rcaron" unicode="&#x158;" horiz-adv-x="619" 
d="M319 829h-8c-5 0 -8 2 -12 6l-84 102c-5 6 -3 12 6 12h13c6 0 9 -2 13 -6l66 -91h4l66 91c3 4 6 6 12 6h14c9 0 11 -6 6 -12l-84 -102c-4 -4 -7 -6 -12 -6zM313 350h-196v-340c0 -6 -4 -10 -10 -10h-20c-6 0 -10 4 -10 10l2 698c0 7 3 10 10 10h257
c130 0 209 -75 209 -182c0 -104 -74 -181 -198 -186l235 -338c4 -7 1 -12 -7 -12h-26c-6 0 -9 2 -12 6zM116 384h226c111 0 176 61 176 150s-67 150 -176 150h-226v-300z" />
    <glyph glyph-name="S" unicode="S" horiz-adv-x="621" 
d="M309 726c146 0 218 -90 243 -153c3 -7 -1 -11 -8 -11h-18c-5 0 -9 2 -11 7c-27 54 -89 122 -210 122c-112 0 -186 -53 -186 -135c0 -86 72 -118 187 -154l50 -15c145 -45 216 -103 216 -205c0 -116 -92 -189 -241 -189c-178 0 -256 100 -279 180c-2 7 1 11 9 11h18
c6 0 10 -3 12 -8c24 -66 90 -148 242 -148c121 0 201 55 201 149c0 88 -71 136 -199 175l-50 16c-128 39 -203 84 -204 183c-1 108 95 175 228 175z" />
    <glyph glyph-name="Sacute" unicode="&#x15a;" horiz-adv-x="621" 
d="M414 940l-90 -106c-4 -4 -7 -6 -12 -6h-2c-8 0 -11 5 -6 12l77 106c3 4 6 6 12 6h15c9 0 11 -6 6 -12zM309 726c146 0 218 -90 243 -153c3 -7 -1 -11 -8 -11h-18c-5 0 -9 2 -11 7c-27 54 -89 122 -210 122c-112 0 -186 -53 -186 -135c0 -86 72 -118 187 -154l50 -15
c145 -45 216 -103 216 -205c0 -116 -92 -189 -241 -189c-178 0 -256 100 -279 180c-2 7 1 11 9 11h18c6 0 10 -3 12 -8c24 -66 90 -148 242 -148c121 0 201 55 201 149c0 88 -71 136 -199 175l-50 16c-128 39 -203 84 -204 183c-1 108 95 175 228 175z" />
    <glyph glyph-name="Scaron" unicode="&#x160;" horiz-adv-x="621" 
d="M314 829h-8c-5 0 -8 2 -12 6l-84 102c-5 6 -3 12 6 12h13c6 0 9 -2 13 -6l66 -91h4l66 91c3 4 6 6 12 6h14c9 0 11 -6 6 -12l-84 -102c-4 -4 -7 -6 -12 -6zM306 402l50 -15c145 -45 216 -103 216 -205c0 -116 -92 -189 -241 -189c-178 0 -256 100 -279 180
c-2 7 1 11 9 11h18c6 0 10 -3 12 -8c24 -66 90 -148 242 -148c121 0 201 55 201 149c0 88 -71 136 -199 175l-50 16c-128 39 -203 84 -204 183c-1 108 95 175 228 175c146 0 218 -90 243 -153c3 -7 -1 -11 -8 -11h-18c-5 0 -9 2 -11 7c-27 54 -89 122 -210 122
c-112 0 -186 -53 -186 -135c0 -86 72 -118 187 -154z" />
    <glyph glyph-name="Scedilla" unicode="&#x15e;" horiz-adv-x="621" 
d="M331 -7h-5l-19 -61c53 -6 96 -31 96 -84c0 -46 -33 -84 -95 -84c-22 0 -45 5 -69 17c-5 2 -7 7 -5 13l1 3c3 6 7 8 13 5c20 -9 44 -13 61 -13c42 0 67 23 67 57c0 37 -30 62 -90 65c-8 0 -11 4 -9 11l21 72c-155 12 -224 105 -246 179c-2 7 1 11 9 11h18c6 0 10 -3 12 -8
c24 -66 90 -148 242 -148c121 0 201 55 201 149c0 88 -71 136 -199 175l-50 16c-128 39 -203 84 -204 183c-1 108 95 175 228 175c146 0 218 -90 243 -153c3 -7 -1 -11 -8 -11h-18c-5 0 -9 2 -11 7c-27 54 -89 122 -210 122c-112 0 -186 -53 -186 -135
c0 -86 72 -118 187 -154l50 -15c145 -45 216 -103 216 -205c0 -116 -92 -189 -241 -189z" />
    <glyph glyph-name="T" unicode="T" horiz-adv-x="545" 
d="M534 708v-15c0 -6 -3 -10 -10 -10h-233l2 -673c0 -6 -4 -10 -10 -10h-21c-6 0 -10 4 -10 10l2 673h-233c-6 0 -10 4 -10 10v15c0 6 4 10 10 10h503c6 0 10 -3 10 -10z" />
    <glyph glyph-name="Tcaron" unicode="&#x164;" horiz-adv-x="545" 
d="M276 829h-8c-5 0 -8 2 -12 6l-84 102c-5 6 -3 12 6 12h13c6 0 9 -2 13 -6l66 -91h4l66 91c3 4 6 6 12 6h14c9 0 11 -6 6 -12l-84 -102c-4 -4 -7 -6 -12 -6zM534 708v-15c0 -6 -3 -10 -10 -10h-233l2 -673c0 -6 -4 -10 -10 -10h-21c-6 0 -10 4 -10 10l2 673h-233
c-6 0 -10 4 -10 10v15c0 6 4 10 10 10h503c6 0 10 -3 10 -10z" />
    <glyph glyph-name="Tcedilla" unicode="&#x162;" horiz-adv-x="545" 
d="M534 708v-15c0 -6 -3 -10 -10 -10h-233l2 -673c0 -6 -2 -10 -6 -10l-22 -68c53 -6 96 -31 96 -84c0 -46 -33 -84 -95 -84c-22 0 -45 5 -69 17c-5 2 -7 7 -5 13l1 3c3 6 7 8 13 5c20 -9 44 -13 61 -13c42 0 67 23 67 57c0 37 -30 62 -90 65c-8 0 -11 4 -9 11l23 78
c-4 0 -6 4 -6 10l2 673h-233c-6 0 -10 4 -10 10v15c0 6 4 10 10 10h503c6 0 10 -3 10 -10z" />
    <glyph glyph-name="U" unicode="U" horiz-adv-x="710" 
d="M632 708l1 -398c0 -207 -118 -317 -280 -317s-276 111 -276 317v398c0 6 4 10 10 10h18c6 0 10 -3 10 -10v-396c0 -188 98 -284 239 -284c142 0 240 96 241 284v396c0 7 4 10 10 10h17c7 0 10 -3 10 -10z" />
    <glyph glyph-name="Uacute" unicode="&#xda;" horiz-adv-x="710" 
d="M454 942l-90 -106c-4 -4 -7 -6 -12 -6h-2c-8 0 -11 5 -6 12l77 106c3 4 6 6 12 6h15c9 0 11 -6 6 -12zM632 708l1 -398c0 -207 -118 -317 -280 -317s-276 111 -276 317v398c0 6 4 10 10 10h18c6 0 10 -3 10 -10v-396c0 -188 98 -284 239 -284c142 0 240 96 241 284v396
c0 7 4 10 10 10h17c7 0 10 -3 10 -10z" />
    <glyph glyph-name="Ucaron" unicode="&#x1d3;" horiz-adv-x="710" 
d="M353 831h-8c-5 0 -8 2 -12 6l-84 102c-5 6 -3 12 6 12h13c6 0 9 -2 13 -6l66 -91h4l66 91c3 4 6 6 12 6h14c9 0 11 -6 6 -12l-84 -102c-4 -4 -7 -6 -12 -6zM632 708l1 -398c0 -207 -118 -317 -280 -317s-276 111 -276 317v398c0 6 4 10 10 10h18c6 0 10 -3 10 -10v-396
c0 -188 98 -284 239 -284c142 0 240 96 241 284v396c0 7 4 10 10 10h17c7 0 10 -3 10 -10z" />
    <glyph glyph-name="Ucircumflex" unicode="&#xdb;" horiz-adv-x="710" 
d="M349 927l-66 -91c-3 -4 -6 -6 -12 -6h-14c-9 0 -11 6 -6 12l84 102c4 4 7 6 12 6h8c5 0 8 -2 12 -6l84 -102c5 -6 3 -12 -6 -12h-13c-6 0 -9 2 -13 6l-66 91h-4zM632 708l1 -398c0 -207 -118 -317 -280 -317s-276 111 -276 317v398c0 6 4 10 10 10h18c6 0 10 -3 10 -10
v-396c0 -188 98 -284 239 -284c142 0 240 96 241 284v396c0 7 4 10 10 10h17c7 0 10 -3 10 -10z" />
    <glyph glyph-name="Udieresis" unicode="&#xdc;" horiz-adv-x="710" 
d="M320 925v-52c0 -6 -3 -10 -10 -10h-9c-6 0 -10 4 -10 10v52c0 7 4 10 10 10h9c6 0 10 -3 10 -10zM440 925v-52c0 -6 -3 -10 -10 -10h-9c-6 0 -10 4 -10 10v52c0 7 4 10 10 10h9c6 0 10 -3 10 -10zM632 708l1 -398c0 -207 -118 -317 -280 -317s-276 111 -276 317v398
c0 6 4 10 10 10h18c6 0 10 -3 10 -10v-396c0 -188 98 -284 239 -284c142 0 240 96 241 284v396c0 7 4 10 10 10h17c7 0 10 -3 10 -10z" />
    <glyph glyph-name="Ugrave" unicode="&#xd9;" horiz-adv-x="710" 
d="M256 954h15c6 0 9 -2 12 -6l77 -106c5 -7 2 -12 -6 -12h-2c-5 0 -8 2 -12 6l-90 106c-5 6 -3 12 6 12zM632 708l1 -398c0 -207 -118 -317 -280 -317s-276 111 -276 317v398c0 6 4 10 10 10h18c6 0 10 -3 10 -10v-396c0 -188 98 -284 239 -284c142 0 240 96 241 284v396
c0 7 4 10 10 10h17c7 0 10 -3 10 -10z" />
    <glyph glyph-name="Uhungarumlaut" unicode="&#x170;" horiz-adv-x="710" 
d="M433 926l-90 -106c-4 -4 -7 -6 -12 -6h-2c-8 0 -11 5 -6 12l77 106c3 4 6 6 12 6h15c9 0 11 -6 6 -12zM554 926l-90 -106c-4 -4 -7 -6 -12 -6h-2c-8 0 -11 5 -6 12l77 106c3 4 6 6 12 6h15c9 0 11 -6 6 -12zM632 708l1 -398c0 -207 -118 -317 -280 -317
s-276 111 -276 317v398c0 6 4 10 10 10h18c6 0 10 -3 10 -10v-396c0 -188 98 -284 239 -284c142 0 240 96 241 284v396c0 7 4 10 10 10h17c7 0 10 -3 10 -10z" />
    <glyph glyph-name="Umacron" unicode="&#x16a;" horiz-adv-x="710" 
d="M442 891v-6c0 -6 -3 -10 -10 -10h-164c-7 0 -10 4 -10 10v6c0 7 4 10 10 10h164c7 0 10 -3 10 -10zM632 708l1 -398c0 -207 -118 -317 -280 -317s-276 111 -276 317v398c0 6 4 10 10 10h18c6 0 10 -3 10 -10v-396c0 -188 98 -284 239 -284c142 0 240 96 241 284v396
c0 7 4 10 10 10h17c7 0 10 -3 10 -10z" />
    <glyph glyph-name="Uring" unicode="&#x16e;" horiz-adv-x="710" 
d="M351 959c40 0 73 -29 73 -73c0 -45 -33 -74 -73 -74s-74 29 -74 74c0 44 34 73 74 73zM351 937c-28 0 -51 -20 -51 -51s23 -51 51 -51s51 20 51 51s-23 51 -51 51zM632 708l1 -398c0 -207 -118 -317 -280 -317s-276 111 -276 317v398c0 6 4 10 10 10h18c6 0 10 -3 10 -10
v-396c0 -188 98 -284 239 -284c142 0 240 96 241 284v396c0 7 4 10 10 10h17c7 0 10 -3 10 -10z" />
    <glyph glyph-name="V" unicode="V" horiz-adv-x="616" 
d="M568 718h18c7 0 10 -5 8 -12l-260 -698c-2 -5 -6 -8 -11 -8h-30c-5 0 -9 3 -11 8l-260 698c-2 7 1 12 8 12h18c5 0 9 -3 11 -8l247 -656h3l248 656c2 5 6 8 11 8z" />
    <glyph glyph-name="W" unicode="W" horiz-adv-x="971" 
d="M926 718h15c7 0 11 -4 9 -11l-213 -699c-2 -5 -6 -8 -12 -8h-27c-6 0 -10 3 -12 8l-201 662l-200 -662c-2 -5 -6 -8 -12 -8h-28c-6 0 -10 3 -12 8l-212 699c-2 7 2 11 9 11h17c6 0 10 -3 12 -8l199 -650h3l201 650c2 5 6 8 12 8h25c6 0 10 -3 12 -8l199 -650h4l200 650
c2 5 6 8 12 8z" />
    <glyph glyph-name="Wacute" unicode="&#x1e82;" horiz-adv-x="971" 
d="M589 942l-90 -106c-4 -4 -7 -6 -12 -6h-2c-8 0 -11 5 -6 12l77 106c3 4 6 6 12 6h15c9 0 11 -6 6 -12zM926 718h15c7 0 11 -4 9 -11l-213 -699c-2 -5 -6 -8 -12 -8h-27c-6 0 -10 3 -12 8l-201 662l-200 -662c-2 -5 -6 -8 -12 -8h-28c-6 0 -10 3 -12 8l-212 699
c-2 7 2 11 9 11h17c6 0 10 -3 12 -8l199 -650h3l201 650c2 5 6 8 12 8h25c6 0 10 -3 12 -8l199 -650h4l200 650c2 5 6 8 12 8z" />
    <glyph glyph-name="Wcircumflex" unicode="&#x174;" horiz-adv-x="971" 
d="M484 927l-66 -91c-3 -4 -6 -6 -12 -6h-14c-9 0 -11 6 -6 12l84 102c4 4 7 6 12 6h8c5 0 8 -2 12 -6l84 -102c5 -6 3 -12 -6 -12h-13c-6 0 -9 2 -13 6l-66 91h-4zM926 718h15c7 0 11 -4 9 -11l-213 -699c-2 -5 -6 -8 -12 -8h-27c-6 0 -10 3 -12 8l-201 662l-200 -662
c-2 -5 -6 -8 -12 -8h-28c-6 0 -10 3 -12 8l-212 699c-2 7 2 11 9 11h17c6 0 10 -3 12 -8l199 -650h3l201 650c2 5 6 8 12 8h25c6 0 10 -3 12 -8l199 -650h4l200 650c2 5 6 8 12 8z" />
    <glyph glyph-name="Wdieresis" unicode="&#x1e84;" horiz-adv-x="971" 
d="M455 925v-52c0 -6 -3 -10 -10 -10h-9c-6 0 -10 4 -10 10v52c0 7 4 10 10 10h9c6 0 10 -3 10 -10zM575 925v-52c0 -6 -3 -10 -10 -10h-9c-6 0 -10 4 -10 10v52c0 7 4 10 10 10h9c6 0 10 -3 10 -10zM926 718h15c7 0 11 -4 9 -11l-213 -699c-2 -5 -6 -8 -12 -8h-27
c-6 0 -10 3 -12 8l-201 662l-200 -662c-2 -5 -6 -8 -12 -8h-28c-6 0 -10 3 -12 8l-212 699c-2 7 2 11 9 11h17c6 0 10 -3 12 -8l199 -650h3l201 650c2 5 6 8 12 8h25c6 0 10 -3 12 -8l199 -650h4l200 650c2 5 6 8 12 8z" />
    <glyph glyph-name="Wgrave" unicode="&#x1e80;" horiz-adv-x="971" 
d="M489 830h-2c-5 0 -8 2 -12 6l-90 106c-5 6 -3 12 6 12h15c6 0 9 -2 12 -6l77 -106c5 -7 2 -12 -6 -12zM926 718h15c7 0 11 -4 9 -11l-213 -699c-2 -5 -6 -8 -12 -8h-27c-6 0 -10 3 -12 8l-201 662l-200 -662c-2 -5 -6 -8 -12 -8h-28c-6 0 -10 3 -12 8l-212 699
c-2 7 2 11 9 11h17c6 0 10 -3 12 -8l199 -650h3l201 650c2 5 6 8 12 8h25c6 0 10 -3 12 -8l199 -650h4l200 650c2 5 6 8 12 8z" />
    <glyph glyph-name="X" unicode="X" horiz-adv-x="672" 
d="M609 0h-23c-6 0 -9 2 -12 6l-238 336l-239 -336c-3 -4 -6 -6 -12 -6h-21c-8 0 -11 5 -6 12l257 359l-237 335c-5 7 -2 12 6 12h17c6 0 9 -2 12 -6l228 -317l228 317c3 4 6 6 12 6h16c8 0 11 -5 6 -12l-242 -339l254 -355c5 -7 2 -12 -6 -12z" />
    <glyph glyph-name="Y" unicode="Y" 
d="M306 329l2 -319c0 -6 -4 -10 -10 -10h-21c-6 0 -10 4 -10 10l2 320l-243 376c-5 7 -2 12 6 12h18c6 0 9 -2 12 -7l224 -342h4l223 342c3 5 6 7 12 7h17c8 0 11 -5 6 -12z" />
    <glyph glyph-name="Yacute" unicode="&#xdd;" 
d="M390 942l-90 -106c-4 -4 -7 -6 -12 -6h-2c-8 0 -11 5 -6 12l77 106c3 4 6 6 12 6h15c9 0 11 -6 6 -12zM306 329l2 -319c0 -6 -4 -10 -10 -10h-21c-6 0 -10 4 -10 10l2 320l-243 376c-5 7 -2 12 6 12h18c6 0 9 -2 12 -7l224 -342h4l223 342c3 5 6 7 12 7h17
c8 0 11 -5 6 -12z" />
    <glyph glyph-name="Ycircumflex" unicode="&#x176;" 
d="M285 927l-66 -91c-3 -4 -6 -6 -12 -6h-14c-9 0 -11 6 -6 12l84 102c4 4 7 6 12 6h8c5 0 8 -2 12 -6l84 -102c5 -6 3 -12 -6 -12h-13c-6 0 -9 2 -13 6l-66 91h-4zM306 329l2 -319c0 -6 -4 -10 -10 -10h-21c-6 0 -10 4 -10 10l2 320l-243 376c-5 7 -2 12 6 12h18
c6 0 9 -2 12 -7l224 -342h4l223 342c3 5 6 7 12 7h17c8 0 11 -5 6 -12z" />
    <glyph glyph-name="Ydieresis" unicode="&#x178;" 
d="M256 925v-52c0 -6 -3 -10 -10 -10h-9c-6 0 -10 4 -10 10v52c0 7 4 10 10 10h9c6 0 10 -3 10 -10zM376 925v-52c0 -6 -3 -10 -10 -10h-9c-6 0 -10 4 -10 10v52c0 7 4 10 10 10h9c6 0 10 -3 10 -10zM306 329l2 -319c0 -6 -4 -10 -10 -10h-21c-6 0 -10 4 -10 10l2 320
l-243 376c-5 7 -2 12 6 12h18c6 0 9 -2 12 -7l224 -342h4l223 342c3 5 6 7 12 7h17c8 0 11 -5 6 -12z" />
    <glyph glyph-name="Ygrave" unicode="&#x1ef2;" 
d="M291 830h-2c-5 0 -8 2 -12 6l-90 106c-5 6 -3 12 6 12h15c6 0 9 -2 12 -6l77 -106c5 -7 2 -12 -6 -12zM306 329l2 -319c0 -6 -4 -10 -10 -10h-21c-6 0 -10 4 -10 10l2 320l-243 376c-5 7 -2 12 6 12h18c6 0 9 -2 12 -7l224 -342h4l223 342c3 5 6 7 12 7h17
c8 0 11 -5 6 -12z" />
    <glyph glyph-name="Z" unicode="Z" horiz-adv-x="626" 
d="M105 35h462c6 0 10 -3 10 -10v-15c0 -6 -3 -10 -10 -10h-505c-6 0 -10 4 -10 10v12c0 5 0 8 4 13l465 644v4h-448c-7 0 -10 4 -10 10v15c0 6 4 10 10 10h489c7 0 10 -3 10 -10v-12c0 -5 -1 -7 -5 -12l-462 -646v-3z" />
    <glyph glyph-name="Zacute" unicode="&#x179;" horiz-adv-x="626" 
d="M417 940l-90 -106c-4 -4 -7 -6 -12 -6h-2c-8 0 -11 5 -6 12l77 106c3 4 6 6 12 6h15c9 0 11 -6 6 -12zM105 35h462c6 0 10 -3 10 -10v-15c0 -6 -3 -10 -10 -10h-505c-6 0 -10 4 -10 10v12c0 5 0 8 4 13l465 644v4h-448c-7 0 -10 4 -10 10v15c0 6 4 10 10 10h489
c7 0 10 -3 10 -10v-12c0 -5 -1 -7 -5 -12l-462 -646v-3z" />
    <glyph glyph-name="Zcaron" unicode="&#x17d;" horiz-adv-x="626" 
d="M316 829h-8c-5 0 -8 2 -12 6l-84 102c-5 6 -3 12 6 12h13c6 0 9 -2 13 -6l66 -91h4l66 91c3 4 6 6 12 6h14c9 0 11 -6 6 -12l-84 -102c-4 -4 -7 -6 -12 -6zM105 35h462c6 0 10 -3 10 -10v-15c0 -6 -3 -10 -10 -10h-505c-6 0 -10 4 -10 10v12c0 5 0 8 4 13l465 644v4h-448
c-7 0 -10 4 -10 10v15c0 6 4 10 10 10h489c7 0 10 -3 10 -10v-12c0 -5 -1 -7 -5 -12l-462 -646v-3z" />
    <glyph glyph-name="Zdotaccent" unicode="&#x17b;" horiz-adv-x="626" 
d="M332 923v-52c0 -6 -3 -10 -10 -10h-17c-7 0 -10 4 -10 10v52c0 7 4 10 10 10h17c7 0 10 -3 10 -10zM105 35h462c6 0 10 -3 10 -10v-15c0 -6 -3 -10 -10 -10h-505c-6 0 -10 4 -10 10v12c0 5 0 8 4 13l465 644v4h-448c-7 0 -10 4 -10 10v15c0 6 4 10 10 10h489
c7 0 10 -3 10 -10v-12c0 -5 -1 -7 -5 -12l-462 -646v-3z" />
    <glyph glyph-name="a" unicode="a" horiz-adv-x="534" 
d="M276 527c112 0 171 -64 171 -171l2 -346c0 -6 -4 -10 -10 -10h-18c-6 0 -10 4 -10 10v77l-5 2c-37 -56 -103 -95 -190 -95c-92 0 -160 44 -160 141c0 127 124 157 339 168l16 1v56c0 74 -41 133 -138 133c-77 1 -129 -37 -152 -95c-2 -5 -6 -8 -12 -8h-15
c-7 0 -11 3 -9 9c23 72 87 128 191 128zM411 272h-15c-194 -10 -303 -34 -303 -135c0 -74 53 -109 129 -109c99 0 168 59 189 116v128z" />
    <glyph glyph-name="aacute" unicode="&#xe1;" horiz-adv-x="534" 
d="M370 741l-90 -106c-4 -4 -7 -6 -12 -6h-2c-8 0 -11 5 -6 12l77 106c3 4 6 6 12 6h15c9 0 11 -6 6 -12zM276 527c112 0 171 -64 171 -171l2 -346c0 -6 -4 -10 -10 -10h-18c-6 0 -10 4 -10 10v77l-5 2c-37 -56 -103 -95 -190 -95c-92 0 -160 44 -160 141
c0 127 124 157 339 168l16 1v56c0 74 -41 133 -138 133c-77 1 -129 -37 -152 -95c-2 -5 -6 -8 -12 -8h-15c-7 0 -11 3 -9 9c23 72 87 128 191 128zM411 272h-15c-194 -10 -303 -34 -303 -135c0 -74 53 -109 129 -109c99 0 168 59 189 116v128z" />
    <glyph glyph-name="abreve" unicode="&#x103;" horiz-adv-x="534" 
d="M371 722v-2c0 -66 -45 -97 -105 -97s-105 31 -105 97v2c0 7 4 10 10 10h7c6 0 10 -3 10 -10v-2c0 -52 33 -71 78 -71s78 19 78 71v2c0 7 4 10 10 10h7c6 0 10 -3 10 -10zM276 527c112 0 171 -64 171 -171l2 -346c0 -6 -4 -10 -10 -10h-18c-6 0 -10 4 -10 10v77l-5 2
c-37 -56 -103 -95 -190 -95c-92 0 -160 44 -160 141c0 127 124 157 339 168l16 1v56c0 74 -41 133 -138 133c-77 1 -129 -37 -152 -95c-2 -5 -6 -8 -12 -8h-15c-7 0 -11 3 -9 9c23 72 87 128 191 128zM411 272h-15c-194 -10 -303 -34 -303 -135c0 -74 53 -109 129 -109
c99 0 168 59 189 116v128z" />
    <glyph glyph-name="acaron" unicode="&#x1ce;" horiz-adv-x="534" 
d="M269 630h-8c-5 0 -8 2 -12 6l-84 102c-5 6 -3 12 6 12h13c6 0 9 -2 13 -6l66 -91h4l66 91c3 4 6 6 12 6h14c9 0 11 -6 6 -12l-84 -102c-4 -4 -7 -6 -12 -6zM439 0h-18c-6 0 -10 4 -10 10v77l-5 2c-37 -56 -103 -95 -190 -95c-92 0 -160 44 -160 141
c0 127 124 157 339 168l16 1v56c0 74 -41 133 -138 133c-77 1 -129 -37 -152 -95c-2 -5 -6 -8 -12 -8h-15c-7 0 -11 4 -9 11c25 71 88 126 191 126c112 0 171 -64 171 -171l2 -346c0 -6 -4 -10 -10 -10zM222 28c99 0 168 59 189 116v128h-15c-194 -10 -303 -34 -303 -135
c0 -74 53 -109 129 -109z" />
    <glyph glyph-name="acircumflex" unicode="&#xe2;" horiz-adv-x="534" 
d="M264 726l-66 -91c-3 -4 -6 -6 -12 -6h-14c-9 0 -11 6 -6 12l84 102c4 4 7 6 12 6h8c5 0 8 -2 12 -6l84 -102c5 -6 3 -12 -6 -12h-13c-6 0 -9 2 -13 6l-66 91h-4zM439 0h-18c-6 0 -10 4 -10 10v77l-5 2c-37 -56 -103 -95 -190 -95c-92 0 -160 44 -160 141
c0 127 124 157 339 168l16 1v56c0 74 -41 133 -138 133c-77 1 -129 -37 -152 -95c-2 -5 -6 -8 -12 -8h-15c-7 0 -11 4 -9 11c25 71 88 126 191 126c112 0 171 -64 171 -171l2 -346c0 -6 -4 -10 -10 -10zM222 28c99 0 168 59 189 116v128h-15c-194 -10 -303 -34 -303 -135
c0 -74 53 -109 129 -109z" />
    <glyph glyph-name="adieresis" unicode="&#xe4;" horiz-adv-x="534" 
d="M236 724v-52c0 -6 -3 -10 -10 -10h-9c-6 0 -10 4 -10 10v52c0 7 4 10 10 10h9c6 0 10 -3 10 -10zM356 724v-52c0 -6 -3 -10 -10 -10h-9c-6 0 -10 4 -10 10v52c0 7 4 10 10 10h9c6 0 10 -3 10 -10zM276 527c112 0 171 -64 171 -171l2 -346c0 -6 -4 -10 -10 -10h-18
c-6 0 -10 4 -10 10v77l-5 2c-37 -56 -103 -95 -190 -95c-92 0 -160 44 -160 141c0 127 124 157 339 168l16 1v56c0 74 -41 133 -138 133c-77 1 -129 -37 -152 -95c-2 -5 -6 -8 -12 -8h-15c-7 0 -11 3 -9 9c23 72 87 128 191 128zM411 272h-15c-194 -10 -303 -34 -303 -135
c0 -74 53 -109 129 -109c99 0 168 59 189 116v128z" />
    <glyph glyph-name="agrave" unicode="&#xe0;" horiz-adv-x="534" 
d="M172 753h15c6 0 9 -2 12 -6l77 -106c5 -7 2 -12 -6 -12h-2c-5 0 -8 2 -12 6l-90 106c-5 6 -3 12 6 12zM276 527c112 0 171 -64 171 -171l2 -346c0 -6 -4 -10 -10 -10h-18c-6 0 -10 4 -10 10v77l-5 2c-37 -56 -103 -95 -190 -95c-92 0 -160 44 -160 141
c0 127 124 157 339 168l16 1v56c0 74 -41 133 -138 133c-77 1 -129 -37 -152 -95c-2 -5 -6 -8 -12 -8h-15c-7 0 -11 3 -9 9c23 72 87 128 191 128zM411 272h-15c-194 -10 -303 -34 -303 -135c0 -74 53 -109 129 -109c99 0 168 59 189 116v128z" />
    <glyph glyph-name="amacron" unicode="&#x101;" horiz-adv-x="534" 
d="M358 690v-6c0 -6 -3 -10 -10 -10h-164c-7 0 -10 4 -10 10v6c0 7 4 10 10 10h164c7 0 10 -3 10 -10zM276 527c112 0 171 -64 171 -171l2 -346c0 -6 -4 -10 -10 -10h-18c-6 0 -10 4 -10 10v77l-5 2c-37 -56 -103 -95 -190 -95c-92 0 -160 44 -160 141
c0 127 124 157 339 168l16 1v56c0 74 -41 133 -138 133c-77 1 -129 -37 -152 -95c-2 -5 -6 -8 -12 -8h-15c-7 0 -11 3 -9 9c23 72 87 128 191 128zM411 272h-15c-194 -10 -303 -34 -303 -135c0 -74 53 -109 129 -109c99 0 168 59 189 116v128z" />
    <glyph glyph-name="aring" unicode="&#xe5;" horiz-adv-x="534" 
d="M267 758c40 0 73 -29 73 -73c0 -45 -33 -74 -73 -74s-74 29 -74 74c0 44 34 73 74 73zM267 736c-28 0 -51 -20 -51 -51s23 -51 51 -51s51 20 51 51s-23 51 -51 51zM276 527c112 0 171 -64 171 -171l2 -346c0 -6 -4 -10 -10 -10h-18c-6 0 -10 4 -10 10v77l-5 2
c-37 -56 -103 -95 -190 -95c-92 0 -160 44 -160 141c0 127 124 157 339 168l16 1v56c0 74 -41 133 -138 133c-77 1 -129 -37 -152 -95c-2 -5 -6 -8 -12 -8h-15c-7 0 -11 3 -9 9c23 72 87 128 191 128zM411 272h-15c-194 -10 -303 -34 -303 -135c0 -74 53 -109 129 -109
c99 0 168 59 189 116v128z" />
    <glyph glyph-name="atilde" unicode="&#xe3;" horiz-adv-x="534" 
d="M216 727c52 0 67 -65 108 -65c22 0 29 16 30 41c0 6 3 10 10 10h5c6 0 10 -4 10 -10c-3 -38 -19 -67 -55 -67c-53 0 -67 65 -108 65c-22 0 -31 -18 -33 -41c0 -7 -3 -10 -10 -10h-5c-6 0 -10 4 -10 10c3 36 20 67 58 67zM276 527c112 0 171 -64 171 -171l2 -346
c0 -6 -4 -10 -10 -10h-18c-6 0 -10 4 -10 10v77l-5 2c-37 -56 -103 -95 -190 -95c-92 0 -160 44 -160 141c0 127 124 157 339 168l16 1v56c0 74 -41 133 -138 133c-77 1 -129 -37 -152 -95c-2 -5 -6 -8 -12 -8h-15c-7 0 -11 3 -9 9c23 72 87 128 191 128zM411 272h-15
c-194 -10 -303 -34 -303 -135c0 -74 53 -109 129 -109c99 0 168 59 189 116v128z" />
    <glyph glyph-name="ae" unicode="&#xe6;" horiz-adv-x="912" 
d="M846 271h-398c-6 -131 61 -244 196 -244c78 0 131 36 162 93c3 5 6 7 12 7h17c8 0 11 -5 7 -12c-38 -77 -106 -122 -200 -122c-105 0 -182 60 -214 154h-2c-33 -98 -110 -149 -210 -149c-92 0 -160 43 -160 137c0 127 124 157 339 168l16 1v47c0 85 -41 146 -138 146
c-77 1 -129 -37 -152 -95c-2 -5 -6 -8 -12 -8h-15c-7 0 -11 4 -9 11c25 71 88 126 191 126c94 0 151 -46 167 -132c39 78 112 124 200 124c133 0 213 -105 213 -242c0 -7 -3 -10 -10 -10zM641 488c-102 0 -176 -73 -190 -185h368c-6 105 -72 185 -178 185zM411 272h-15
c-194 -10 -303 -34 -303 -135c0 -71 53 -105 129 -105c99 0 189 67 189 210v30z" />
    <glyph glyph-name="b" unicode="b" horiz-adv-x="594" 
d="M123 439l5 -2c44 57 104 90 178 90c136 0 232 -109 232 -271c0 -155 -88 -263 -226 -263c-73 0 -143 31 -184 89l-5 -1v-71c0 -6 -3 -10 -10 -10h-17c-7 0 -10 4 -10 10v714c0 7 4 10 10 10h16c7 0 10 -3 10 -10zM307 492c-83 0 -148 -49 -185 -133v-212
c33 -78 104 -120 184 -120c122 0 195 95 195 231c0 142 -81 234 -194 234z" />
    <glyph glyph-name="c" unicode="c" horiz-adv-x="513" 
d="M282 524c100 0 167 -53 199 -129c2 -7 -1 -12 -8 -12h-18c-5 0 -9 2 -11 8c-28 60 -82 99 -162 99c-125 0 -189 -103 -189 -234c0 -127 64 -229 191 -229c79 0 132 38 159 93c2 6 6 8 11 8h18c8 0 11 -5 8 -12c-33 -72 -98 -123 -199 -123c-139 0 -225 108 -225 262
c0 159 88 269 226 269z" />
    <glyph glyph-name="cacute" unicode="&#x107;" horiz-adv-x="513" 
d="M382 741l-90 -106c-4 -4 -7 -6 -12 -6h-2c-8 0 -11 5 -6 12l77 106c3 4 6 6 12 6h15c9 0 11 -6 6 -12zM282 524c100 0 167 -53 199 -129c2 -7 -1 -12 -8 -12h-18c-5 0 -9 2 -11 8c-28 60 -82 99 -162 99c-125 0 -189 -103 -189 -234c0 -127 64 -229 191 -229
c79 0 132 38 159 93c2 6 6 8 11 8h18c8 0 11 -5 8 -12c-33 -72 -98 -123 -199 -123c-139 0 -225 108 -225 262c0 159 88 269 226 269z" />
    <glyph glyph-name="ccaron" unicode="&#x10d;" horiz-adv-x="513" 
d="M281 630h-8c-5 0 -8 2 -12 6l-84 102c-5 6 -3 12 6 12h13c6 0 9 -2 13 -6l66 -91h4l66 91c3 4 6 6 12 6h14c9 0 11 -6 6 -12l-84 -102c-4 -4 -7 -6 -12 -6zM284 27c79 0 132 38 159 93c2 6 6 8 11 8h18c8 0 11 -5 8 -12c-33 -72 -98 -123 -199 -123
c-139 0 -225 108 -225 262c0 159 88 269 226 269c100 0 167 -53 199 -129c2 -7 -1 -12 -8 -12h-18c-5 0 -9 2 -11 8c-28 60 -82 99 -162 99c-125 0 -189 -103 -189 -234c0 -127 64 -229 191 -229z" />
    <glyph glyph-name="ccedilla" unicode="&#xe7;" horiz-adv-x="513" 
d="M284 27c79 0 132 38 159 93c2 6 6 8 11 8h18c8 0 11 -5 8 -12c-32 -70 -96 -121 -194 -123l-19 -61c53 -6 96 -31 96 -84c0 -46 -33 -84 -95 -84c-22 0 -45 5 -69 17c-5 2 -7 7 -5 13l1 3c3 6 7 8 13 5c20 -9 44 -13 61 -13c42 0 67 23 67 57c0 37 -30 62 -90 65
c-8 0 -11 4 -9 11l21 72c-125 11 -202 116 -202 261c0 159 88 269 226 269c100 0 167 -53 199 -129c2 -7 -1 -12 -8 -12h-18c-5 0 -9 2 -11 8c-28 60 -82 99 -162 99c-125 0 -189 -103 -189 -234c0 -127 64 -229 191 -229z" />
    <glyph glyph-name="cdotaccent" unicode="&#x10b;" horiz-adv-x="513" 
d="M296 724v-52c0 -6 -3 -10 -10 -10h-17c-7 0 -10 4 -10 10v52c0 7 4 10 10 10h17c7 0 10 -3 10 -10zM282 524c100 0 167 -53 199 -129c2 -7 -1 -12 -8 -12h-18c-5 0 -9 2 -11 8c-28 60 -82 99 -162 99c-125 0 -189 -103 -189 -234c0 -127 64 -229 191 -229
c79 0 132 38 159 93c2 6 6 8 11 8h18c8 0 11 -5 8 -12c-33 -72 -98 -123 -199 -123c-139 0 -225 108 -225 262c0 159 88 269 226 269z" />
    <glyph glyph-name="d" unicode="d" horiz-adv-x="594" 
d="M507 724l1 -714c0 -6 -4 -10 -10 -10h-18c-6 0 -10 4 -10 10v71l-5 1c-40 -58 -110 -89 -184 -89c-136 0 -225 108 -225 263c0 162 95 271 232 271c73 0 134 -33 178 -90l4 2l1 285c0 7 3 10 10 10h16c7 0 10 -3 10 -10zM288 492c-116 0 -195 -92 -195 -233
c0 -137 76 -232 196 -232c79 0 151 44 183 125v212c-37 82 -102 128 -184 128z" />
    <glyph glyph-name="dcaron" unicode="&#x10f;" horiz-adv-x="594" 
d="M507 724l1 -714c0 -6 -4 -10 -10 -10h-18c-6 0 -10 4 -10 10v71l-5 1c-40 -58 -110 -89 -184 -89c-136 0 -225 108 -225 263c0 162 95 271 232 271c73 0 134 -33 178 -90l4 2l1 285c0 7 3 10 10 10h16c7 0 10 -3 10 -10zM606 723l-20 -151c-1 -6 -4 -9 -10 -9h-5
c-7 0 -11 4 -10 11l17 151c1 6 4 9 10 9h8c7 0 10 -4 10 -11zM288 492c-116 0 -195 -92 -195 -233c0 -137 76 -232 196 -232c79 0 151 44 183 125v212c-37 82 -102 128 -184 128z" />
    <glyph glyph-name="e" unicode="e" horiz-adv-x="557" 
d="M288 523c132 0 213 -105 213 -242c0 -7 -3 -10 -10 -10h-398c-6 -131 61 -244 196 -244c77 0 131 36 162 93c3 5 6 7 12 7h17c8 0 11 -5 7 -12c-38 -77 -106 -122 -200 -122c-141 0 -231 108 -231 262c0 162 98 268 232 268zM286 488c-102 0 -176 -73 -190 -185h368
c-6 105 -72 185 -178 185z" />
    <glyph glyph-name="eacute" unicode="&#xe9;" horiz-adv-x="557" 
d="M386 741l-90 -106c-4 -4 -7 -6 -12 -6h-2c-8 0 -11 5 -6 12l77 106c3 4 6 6 12 6h15c9 0 11 -6 6 -12zM288 523c132 0 213 -105 213 -242c0 -7 -3 -10 -10 -10h-398c-6 -131 61 -244 196 -244c77 0 131 36 162 93c3 5 6 7 12 7h17c8 0 11 -5 7 -12
c-38 -77 -106 -122 -200 -122c-141 0 -231 108 -231 262c0 162 98 268 232 268zM286 488c-102 0 -176 -73 -190 -185h368c-6 105 -72 185 -178 185z" />
    <glyph glyph-name="ecaron" unicode="&#x11b;" horiz-adv-x="557" 
d="M286 630h-8c-5 0 -8 2 -12 6l-84 102c-5 6 -3 12 6 12h13c6 0 9 -2 13 -6l66 -91h4l66 91c3 4 6 6 12 6h14c9 0 11 -6 6 -12l-84 -102c-4 -4 -7 -6 -12 -6zM491 271h-398c-6 -131 61 -244 196 -244c77 0 131 36 162 93c3 5 6 7 12 7h17c8 0 11 -5 7 -12
c-38 -77 -106 -122 -200 -122c-141 0 -231 108 -231 262c0 162 98 268 232 268c132 0 213 -105 213 -242c0 -7 -3 -10 -10 -10zM286 488c-102 0 -176 -73 -190 -185h368c-6 105 -72 185 -178 185z" />
    <glyph glyph-name="ecircumflex" unicode="&#xea;" horiz-adv-x="557" 
d="M281 726l-66 -91c-3 -4 -6 -6 -12 -6h-14c-9 0 -11 6 -6 12l84 102c4 4 7 6 12 6h8c5 0 8 -2 12 -6l84 -102c5 -6 3 -12 -6 -12h-13c-6 0 -9 2 -13 6l-66 91h-4zM491 271h-398c-6 -131 61 -244 196 -244c77 0 131 36 162 93c3 5 6 7 12 7h17c8 0 11 -5 7 -12
c-38 -77 -106 -122 -200 -122c-141 0 -231 108 -231 262c0 162 98 268 232 268c132 0 213 -105 213 -242c0 -7 -3 -10 -10 -10zM286 488c-102 0 -176 -73 -190 -185h368c-6 105 -72 185 -178 185z" />
    <glyph glyph-name="edieresis" unicode="&#xeb;" horiz-adv-x="557" 
d="M252 724v-52c0 -6 -3 -10 -10 -10h-9c-6 0 -10 4 -10 10v52c0 7 4 10 10 10h9c6 0 10 -3 10 -10zM372 724v-52c0 -6 -3 -10 -10 -10h-9c-6 0 -10 4 -10 10v52c0 7 4 10 10 10h9c6 0 10 -3 10 -10zM288 523c132 0 213 -105 213 -242c0 -7 -3 -10 -10 -10h-398
c-6 -131 61 -244 196 -244c77 0 131 36 162 93c3 5 6 7 12 7h17c8 0 11 -5 7 -12c-38 -77 -106 -122 -200 -122c-141 0 -231 108 -231 262c0 162 98 268 232 268zM286 488c-102 0 -176 -73 -190 -185h368c-6 105 -72 185 -178 185z" />
    <glyph glyph-name="edotaccent" unicode="&#x117;" horiz-adv-x="557" 
d="M301 724v-52c0 -6 -3 -10 -10 -10h-17c-7 0 -10 4 -10 10v52c0 7 4 10 10 10h17c7 0 10 -3 10 -10zM288 523c132 0 213 -105 213 -242c0 -7 -3 -10 -10 -10h-398c-6 -131 61 -244 196 -244c77 0 131 36 162 93c3 5 6 7 12 7h17c8 0 11 -5 7 -12
c-38 -77 -106 -122 -200 -122c-141 0 -231 108 -231 262c0 162 98 268 232 268zM286 488c-102 0 -176 -73 -190 -185h368c-6 105 -72 185 -178 185z" />
    <glyph glyph-name="egrave" unicode="&#xe8;" horiz-adv-x="557" 
d="M189 753h15c6 0 9 -2 12 -6l77 -106c5 -7 2 -12 -6 -12h-2c-5 0 -8 2 -12 6l-90 106c-5 6 -3 12 6 12zM288 523c132 0 213 -105 213 -242c0 -7 -3 -10 -10 -10h-398c-6 -131 61 -244 196 -244c77 0 131 36 162 93c3 5 6 7 12 7h17c8 0 11 -5 7 -12
c-38 -77 -106 -122 -200 -122c-141 0 -231 108 -231 262c0 162 98 268 232 268zM286 488c-102 0 -176 -73 -190 -185h368c-6 105 -72 185 -178 185z" />
    <glyph glyph-name="emacron" unicode="&#x113;" horiz-adv-x="557" 
d="M375 690v-6c0 -6 -3 -10 -10 -10h-164c-7 0 -10 4 -10 10v6c0 7 4 10 10 10h164c7 0 10 -3 10 -10zM288 523c132 0 213 -105 213 -242c0 -7 -3 -10 -10 -10h-398c-6 -131 61 -244 196 -244c77 0 131 36 162 93c3 5 6 7 12 7h17c8 0 11 -5 7 -12
c-38 -77 -106 -122 -200 -122c-141 0 -231 108 -231 262c0 162 98 268 232 268zM286 488c-102 0 -176 -73 -190 -185h368c-6 105 -72 185 -178 185z" />
    <glyph glyph-name="f" unicode="f" horiz-adv-x="321" 
d="M298 724v-13c0 -7 -4 -10 -10 -10c-97 -3 -133 -30 -133 -142v-40h128c7 0 10 -3 10 -10v-12c0 -6 -3 -10 -10 -10h-128l1 -477c0 -6 -4 -10 -10 -10h-19c-6 0 -10 4 -10 10l1 477h-74c-6 0 -10 4 -10 10v12c0 6 3 10 10 10h74v38c0 138 51 178 170 177c6 0 10 -3 10 -10
z" />
    <glyph glyph-name="g" unicode="g" horiz-adv-x="594" 
d="M281 527c74 0 145 -32 184 -90h5l1 72c0 7 3 10 10 10h16c7 0 10 -3 10 -10l1 -470c1 -167 -72 -266 -219 -266c-112 0 -173 56 -203 126c-3 7 0 12 8 12h17c5 0 9 -2 11 -7c26 -51 74 -97 168 -97c119 0 180 78 180 228v49l-5 2c-44 -55 -103 -86 -177 -86
c-137 0 -232 101 -232 263c0 156 89 264 225 264zM289 492c-120 0 -196 -94 -196 -232c0 -140 79 -226 194 -226c83 0 148 44 185 121v212c-32 81 -104 125 -183 125z" />
    <glyph glyph-name="gbreve" unicode="&#x11f;" horiz-adv-x="594" 
d="M400 722v-2c0 -66 -45 -97 -105 -97s-105 31 -105 97v2c0 7 4 10 10 10h7c6 0 10 -3 10 -10v-2c0 -52 33 -71 78 -71s78 19 78 71v2c0 7 4 10 10 10h7c6 0 10 -3 10 -10zM281 527c74 0 145 -32 184 -90h5l1 72c0 7 3 10 10 10h16c7 0 10 -3 10 -10l1 -470
c1 -167 -72 -266 -219 -266c-112 0 -173 56 -203 126c-3 7 0 12 8 12h17c5 0 9 -2 11 -7c26 -51 74 -97 168 -97c119 0 180 78 180 228v49l-5 2c-44 -55 -103 -86 -177 -86c-137 0 -232 101 -232 263c0 156 89 264 225 264zM289 492c-120 0 -196 -94 -196 -232
c0 -140 79 -226 194 -226c83 0 148 44 185 121v212c-32 81 -104 125 -183 125z" />
    <glyph glyph-name="gdotaccent" unicode="&#x121;" horiz-adv-x="594" 
d="M314 724v-52c0 -6 -3 -10 -10 -10h-17c-7 0 -10 4 -10 10v52c0 7 4 10 10 10h17c7 0 10 -3 10 -10zM281 527c74 0 145 -32 184 -90h5l1 72c0 7 3 10 10 10h16c7 0 10 -3 10 -10l1 -470c1 -167 -72 -266 -219 -266c-112 0 -173 56 -203 126c-3 7 0 12 8 12h17
c5 0 9 -2 11 -7c26 -51 74 -97 168 -97c119 0 180 78 180 228v49l-5 2c-44 -55 -103 -86 -177 -86c-137 0 -232 101 -232 263c0 156 89 264 225 264zM289 492c-120 0 -196 -94 -196 -232c0 -140 79 -226 194 -226c83 0 148 44 185 121v212c-32 81 -104 125 -183 125z" />
    <glyph glyph-name="h" unicode="h" horiz-adv-x="554" 
d="M123 431l6 -1c40 49 100 95 183 95c96 0 156 -60 156 -169v-346c0 -6 -3 -10 -10 -10h-18c-6 0 -10 4 -10 10v338c1 92 -47 141 -127 141c-76 0 -137 -45 -180 -122l1 -357c0 -6 -4 -10 -10 -10h-18c-6 0 -10 4 -10 10v714c0 7 4 10 10 10h17c7 0 10 -3 10 -10v-293z" />
    <glyph glyph-name="i" unicode="i" horiz-adv-x="229" 
d="M133 724v-52c0 -6 -3 -10 -10 -10h-17c-7 0 -10 4 -10 10v52c0 7 4 10 10 10h17c7 0 10 -3 10 -10zM133 509l1 -499c0 -6 -4 -10 -10 -10h-18c-6 0 -10 4 -10 10v499c0 7 4 10 10 10h17c7 0 10 -3 10 -10z" />
    <glyph glyph-name="dotlessi" unicode="&#x131;" horiz-adv-x="229" 
d="M133 509l1 -499c0 -6 -4 -10 -10 -10h-18c-6 0 -10 4 -10 10v499c0 7 4 10 10 10h17c7 0 10 -3 10 -10z" />
    <glyph glyph-name="iacute" unicode="&#xed;" horiz-adv-x="229" 
d="M218 741l-90 -106c-4 -4 -7 -6 -12 -6h-2c-8 0 -11 5 -6 12l77 106c3 4 6 6 12 6h15c9 0 11 -6 6 -12zM133 509l1 -499c0 -6 -4 -10 -10 -10h-18c-6 0 -10 4 -10 10v499c0 7 4 10 10 10h17c7 0 10 -3 10 -10z" />
    <glyph glyph-name="icaron" unicode="&#x1d0;" horiz-adv-x="229" 
d="M118 630h-8c-5 0 -8 2 -12 6l-84 102c-5 6 -3 12 6 12h13c6 0 9 -2 13 -6l66 -91h4l66 91c3 4 6 6 12 6h14c9 0 11 -6 6 -12l-84 -102c-4 -4 -7 -6 -12 -6zM106 519h17c7 0 10 -3 10 -10l1 -499c0 -6 -4 -10 -10 -10h-18c-6 0 -10 4 -10 10v499c0 7 4 10 10 10z" />
    <glyph glyph-name="icircumflex" unicode="&#xee;" horiz-adv-x="229" 
d="M131 743l84 -102c5 -6 3 -12 -6 -12h-13c-6 0 -9 2 -13 6l-66 91h-4l-66 -91c-3 -4 -6 -6 -12 -6h-14c-9 0 -11 6 -6 12l84 102c4 4 7 6 12 6h8c5 0 8 -2 12 -6zM106 519h17c7 0 10 -3 10 -10l1 -499c0 -6 -4 -10 -10 -10h-18c-6 0 -10 4 -10 10v499c0 7 4 10 10 10z" />
    <glyph glyph-name="idieresis" unicode="&#xef;" horiz-adv-x="229" 
d="M85 724v-52c0 -6 -3 -10 -10 -10h-9c-6 0 -10 4 -10 10v52c0 7 4 10 10 10h9c6 0 10 -3 10 -10zM205 724v-52c0 -6 -3 -10 -10 -10h-9c-6 0 -10 4 -10 10v52c0 7 4 10 10 10h9c6 0 10 -3 10 -10zM133 509l1 -499c0 -6 -4 -10 -10 -10h-18c-6 0 -10 4 -10 10v499
c0 7 4 10 10 10h17c7 0 10 -3 10 -10z" />
    <glyph glyph-name="idotaccent" horiz-adv-x="229" 
d="M133 724v-52c0 -6 -3 -10 -10 -10h-17c-7 0 -10 4 -10 10v52c0 7 4 10 10 10h17c7 0 10 -3 10 -10zM133 509l1 -499c0 -6 -4 -10 -10 -10h-18c-6 0 -10 4 -10 10v499c0 7 4 10 10 10h17c7 0 10 -3 10 -10z" />
    <glyph glyph-name="igrave" unicode="&#xec;" horiz-adv-x="229" 
d="M21 753h15c6 0 9 -2 12 -6l77 -106c5 -7 2 -12 -6 -12h-2c-5 0 -8 2 -12 6l-90 106c-5 6 -3 12 6 12zM133 509l1 -499c0 -6 -4 -10 -10 -10h-18c-6 0 -10 4 -10 10v499c0 7 4 10 10 10h17c7 0 10 -3 10 -10z" />
    <glyph glyph-name="imacron" unicode="&#x12b;" horiz-adv-x="229" 
d="M207 690v-6c0 -6 -3 -10 -10 -10h-164c-7 0 -10 4 -10 10v6c0 7 4 10 10 10h164c7 0 10 -3 10 -10zM133 509l1 -499c0 -6 -4 -10 -10 -10h-18c-6 0 -10 4 -10 10v499c0 7 4 10 10 10h17c7 0 10 -3 10 -10z" />
    <glyph glyph-name="j" unicode="j" horiz-adv-x="272" 
d="M157 724v-52c0 -6 -3 -10 -10 -10h-17c-7 0 -10 4 -10 10v52c0 7 4 10 10 10h17c7 0 10 -3 10 -10zM158 509v-555c1 -130 -49 -172 -161 -174c-6 0 -10 4 -10 10v14c0 7 4 10 10 10c95 3 122 37 122 142l1 553c0 7 3 10 10 10h18c6 0 10 -3 10 -10z" />
    <glyph glyph-name="dotlessj" unicode="&#x237;" horiz-adv-x="272" 
d="M158 509v-555c1 -130 -49 -172 -161 -174c-6 0 -10 4 -10 10v14c0 7 4 10 10 10c95 3 122 37 122 142l1 553c0 7 3 10 10 10h18c6 0 10 -3 10 -10z" />
    <glyph glyph-name="k" unicode="k" horiz-adv-x="534" 
d="M221 292l-97 -90l1 -192c0 -6 -4 -10 -10 -10h-19c-6 0 -10 4 -10 10l1 714c0 7 3 10 10 10h16c7 0 10 -3 10 -10l1 -480l291 270c3 4 7 5 12 5h20c9 0 11 -6 5 -12l-206 -192l223 -303c5 -7 2 -12 -6 -12h-22c-6 0 -9 2 -12 6z" />
    <glyph glyph-name="l" unicode="l" horiz-adv-x="266" 
d="M151 724l1 -714c0 -6 -4 -10 -10 -10h-19c-6 0 -10 4 -10 10l2 714c0 7 3 10 10 10h16c7 0 10 -3 10 -10z" />
    <glyph glyph-name="lacute" unicode="&#x13a;" horiz-adv-x="266" 
d="M236 942l-90 -106c-4 -4 -7 -6 -12 -6h-2c-8 0 -11 5 -6 12l77 106c3 4 6 6 12 6h15c9 0 11 -6 6 -12zM151 724l1 -714c0 -6 -4 -10 -10 -10h-19c-6 0 -10 4 -10 10l2 714c0 7 3 10 10 10h16c7 0 10 -3 10 -10z" />
    <glyph glyph-name="lcaron" unicode="&#x13e;" horiz-adv-x="266" 
d="M151 724l1 -714c0 -6 -4 -10 -10 -10h-19c-6 0 -10 4 -10 10l2 714c0 7 3 10 10 10h16c7 0 10 -3 10 -10zM256 723l-20 -151c-1 -6 -4 -9 -10 -9h-5c-7 0 -11 4 -10 11l17 151c1 6 4 9 10 9h8c7 0 10 -4 10 -11z" />
    <glyph glyph-name="m" unicode="m" horiz-adv-x="812" 
d="M598 527c89 0 145 -57 146 -171v-346c0 -6 -3 -10 -10 -10h-18c-6 0 -10 4 -10 10v338c0 97 -43 143 -116 143c-71 0 -129 -44 -167 -125l1 -356c0 -6 -4 -10 -10 -10h-19c-6 0 -10 4 -10 10l1 338c0 97 -44 143 -118 143c-72 0 -133 -44 -174 -124v-357
c0 -7 -3 -10 -10 -10h-18c-6 0 -10 4 -10 10l1 499c0 7 3 10 10 10h16c7 0 10 -3 10 -10l1 -79h5c39 48 97 97 179 97c65 0 115 -31 137 -105h4c39 56 97 105 179 105z" />
    <glyph glyph-name="n" unicode="n" horiz-adv-x="553" 
d="M313 527c95 0 154 -57 154 -171v-346c0 -6 -3 -10 -10 -10h-16c-6 0 -10 4 -10 10v338c0 97 -49 143 -127 143c-77 0 -137 -46 -181 -124l1 -357c0 -6 -4 -10 -10 -10h-18c-6 0 -10 4 -10 10v499c0 7 4 10 10 10h17c7 0 10 -3 10 -10v-78l6 -1c41 50 100 97 184 97z" />
    <glyph glyph-name="nacute" unicode="&#x144;" horiz-adv-x="553" 
d="M380 741l-90 -106c-4 -4 -7 -6 -12 -6h-2c-8 0 -11 5 -6 12l77 106c3 4 6 6 12 6h15c9 0 11 -6 6 -12zM313 527c95 0 154 -57 154 -171v-346c0 -6 -3 -10 -10 -10h-16c-6 0 -10 4 -10 10v338c0 97 -49 143 -127 143c-77 0 -137 -46 -181 -124l1 -357c0 -6 -4 -10 -10 -10
h-18c-6 0 -10 4 -10 10v499c0 7 4 10 10 10h17c7 0 10 -3 10 -10v-78l6 -1c41 50 100 97 184 97z" />
    <glyph glyph-name="ncaron" unicode="&#x148;" horiz-adv-x="553" 
d="M280 630h-8c-5 0 -8 2 -12 6l-84 102c-5 6 -3 12 6 12h13c6 0 9 -2 13 -6l66 -91h4l66 91c3 4 6 6 12 6h14c9 0 11 -6 6 -12l-84 -102c-4 -4 -7 -6 -12 -6zM313 527c95 0 154 -57 154 -171v-346c0 -6 -3 -10 -10 -10h-16c-6 0 -10 4 -10 10v338c0 97 -49 143 -127 143
c-77 0 -137 -46 -181 -124l1 -357c0 -6 -4 -10 -10 -10h-18c-6 0 -10 4 -10 10v499c0 7 4 10 10 10h17c7 0 10 -3 10 -10v-78l6 -1c41 50 100 97 184 97z" />
    <glyph glyph-name="ntilde" unicode="&#xf1;" horiz-adv-x="553" 
d="M226 727c52 0 67 -65 108 -65c22 0 29 16 30 41c0 6 3 10 10 10h5c6 0 10 -4 10 -10c-3 -38 -19 -67 -55 -67c-53 0 -67 65 -108 65c-22 0 -31 -18 -33 -41c0 -7 -3 -10 -10 -10h-5c-6 0 -10 4 -10 10c3 36 20 67 58 67zM313 527c95 0 154 -57 154 -171v-346
c0 -6 -3 -10 -10 -10h-16c-6 0 -10 4 -10 10v338c0 97 -49 143 -127 143c-77 0 -137 -46 -181 -124l1 -357c0 -6 -4 -10 -10 -10h-18c-6 0 -10 4 -10 10v499c0 7 4 10 10 10h17c7 0 10 -3 10 -10v-78l6 -1c41 50 100 97 184 97z" />
    <glyph glyph-name="o" unicode="o" 
d="M290 527c135 0 229 -105 229 -262c0 -158 -99 -272 -235 -272c-134 0 -228 111 -228 266c0 159 98 268 234 268zM288 492c-114 0 -195 -92 -195 -231c0 -137 80 -234 193 -234c114 0 195 98 195 236s-79 229 -193 229z" />
    <glyph glyph-name="oacute" unicode="&#xf3;" 
d="M390 741l-90 -106c-4 -4 -7 -6 -12 -6h-2c-8 0 -11 5 -6 12l77 106c3 4 6 6 12 6h15c9 0 11 -6 6 -12zM290 527c135 0 229 -105 229 -262c0 -158 -99 -272 -235 -272c-134 0 -228 111 -228 266c0 159 98 268 234 268zM288 492c-114 0 -195 -92 -195 -231
c0 -137 80 -234 193 -234c114 0 195 98 195 236s-79 229 -193 229z" />
    <glyph glyph-name="ocaron" unicode="&#x1d2;" 
d="M290 630h-8c-5 0 -8 2 -12 6l-84 102c-5 6 -3 12 6 12h13c6 0 9 -2 13 -6l66 -91h4l66 91c3 4 6 6 12 6h14c9 0 11 -6 6 -12l-84 -102c-4 -4 -7 -6 -12 -6zM290 527c135 0 229 -105 229 -262c0 -158 -99 -272 -235 -272c-134 0 -228 111 -228 266c0 159 98 268 234 268z
M286 27c114 0 195 98 195 236s-79 229 -193 229s-195 -92 -195 -231c0 -137 80 -234 193 -234z" />
    <glyph glyph-name="ocircumflex" unicode="&#xf4;" 
d="M285 726l-66 -91c-3 -4 -6 -6 -12 -6h-14c-9 0 -11 6 -6 12l84 102c4 4 7 6 12 6h8c5 0 8 -2 12 -6l84 -102c5 -6 3 -12 -6 -12h-13c-6 0 -9 2 -13 6l-66 91h-4zM290 527c135 0 229 -105 229 -262c0 -158 -99 -272 -235 -272c-134 0 -228 111 -228 266
c0 159 98 268 234 268zM286 27c114 0 195 98 195 236s-79 229 -193 229s-195 -92 -195 -231c0 -137 80 -234 193 -234z" />
    <glyph glyph-name="odieresis" unicode="&#xf6;" 
d="M257 724v-52c0 -6 -3 -10 -10 -10h-9c-6 0 -10 4 -10 10v52c0 7 4 10 10 10h9c6 0 10 -3 10 -10zM377 724v-52c0 -6 -3 -10 -10 -10h-9c-6 0 -10 4 -10 10v52c0 7 4 10 10 10h9c6 0 10 -3 10 -10zM290 527c135 0 229 -105 229 -262c0 -158 -99 -272 -235 -272
c-134 0 -228 111 -228 266c0 159 98 268 234 268zM288 492c-114 0 -195 -92 -195 -231c0 -137 80 -234 193 -234c114 0 195 98 195 236s-79 229 -193 229z" />
    <glyph glyph-name="ograve" unicode="&#xf2;" 
d="M193 753h15c6 0 9 -2 12 -6l77 -106c5 -7 2 -12 -6 -12h-2c-5 0 -8 2 -12 6l-90 106c-5 6 -3 12 6 12zM290 527c135 0 229 -105 229 -262c0 -158 -99 -272 -235 -272c-134 0 -228 111 -228 266c0 159 98 268 234 268zM288 492c-114 0 -195 -92 -195 -231
c0 -137 80 -234 193 -234c114 0 195 98 195 236s-79 229 -193 229z" />
    <glyph glyph-name="ohungarumlaut" unicode="&#x151;" 
d="M369 725l-90 -106c-4 -4 -7 -6 -12 -6h-2c-8 0 -11 5 -6 12l77 106c3 4 6 6 12 6h15c9 0 11 -6 6 -12zM490 725l-90 -106c-4 -4 -7 -6 -12 -6h-2c-8 0 -11 5 -6 12l77 106c3 4 6 6 12 6h15c9 0 11 -6 6 -12zM290 527c135 0 229 -105 229 -262c0 -158 -99 -272 -235 -272
c-134 0 -228 111 -228 266c0 159 98 268 234 268zM288 492c-114 0 -195 -92 -195 -231c0 -137 80 -234 193 -234c114 0 195 98 195 236s-79 229 -193 229z" />
    <glyph glyph-name="omacron" unicode="&#x14d;" 
d="M379 690v-6c0 -6 -3 -10 -10 -10h-164c-7 0 -10 4 -10 10v6c0 7 4 10 10 10h164c7 0 10 -3 10 -10zM290 527c135 0 229 -105 229 -262c0 -158 -99 -272 -235 -272c-134 0 -228 111 -228 266c0 159 98 268 234 268zM288 492c-114 0 -195 -92 -195 -231
c0 -137 80 -234 193 -234c114 0 195 98 195 236s-79 229 -193 229z" />
    <glyph glyph-name="oslash" unicode="&#xf8;" horiz-adv-x="593" 
d="M519 507l-49 -58c38 -46 59 -109 59 -184c0 -158 -98 -272 -235 -272c-61 0 -113 23 -152 62l-41 -49c-4 -4 -7 -6 -12 -6h-17c-9 0 -11 6 -6 12l55 66c-35 47 -55 109 -55 181c0 159 98 268 234 268c59 0 110 -20 149 -56l35 42c4 4 7 6 12 6h17c9 0 11 -6 6 -12z
M103 261c0 -60 16 -113 43 -153l279 335c-33 31 -77 49 -127 49c-114 0 -195 -92 -195 -231zM492 263c0 63 -17 117 -46 156l-280 -336c34 -35 79 -56 130 -56c115 0 196 98 196 236z" />
    <glyph glyph-name="otilde" unicode="&#xf5;" 
d="M236 727c52 0 67 -65 108 -65c22 0 29 16 30 41c0 6 3 10 10 10h5c6 0 10 -4 10 -10c-3 -38 -19 -67 -55 -67c-53 0 -67 65 -108 65c-22 0 -31 -18 -33 -41c0 -7 -3 -10 -10 -10h-5c-6 0 -10 4 -10 10c3 36 20 67 58 67zM290 527c135 0 229 -105 229 -262
c0 -158 -99 -272 -235 -272c-134 0 -228 111 -228 266c0 159 98 268 234 268zM288 492c-114 0 -195 -92 -195 -231c0 -137 80 -234 193 -234c114 0 195 98 195 236s-79 229 -193 229z" />
    <glyph glyph-name="oe" unicode="&#x153;" horiz-adv-x="983" 
d="M519 270v-5v-16c2 -121 68 -222 195 -222c78 0 132 36 163 93c3 5 6 7 12 7h17c8 0 11 -5 7 -12c-38 -77 -106 -122 -201 -122c-104 0 -181 60 -214 154c-36 -94 -115 -154 -214 -154c-134 0 -228 111 -228 266c0 159 98 268 234 268c101 0 178 -58 212 -153
c35 93 114 149 211 149c133 0 213 -105 214 -242c0 -6 -3 -10 -10 -10zM286 27c114 0 195 98 195 236s-79 229 -193 229s-195 -92 -195 -231c0 -137 80 -234 193 -234zM711 488c-101 0 -175 -73 -189 -185h368c-6 105 -72 185 -179 185z" />
    <glyph glyph-name="p" unicode="p" horiz-adv-x="594" 
d="M312 527c138 0 226 -108 226 -264c0 -162 -96 -270 -232 -270c-74 0 -134 32 -177 89l-5 -2v-290c0 -6 -3 -10 -10 -10h-18c-6 0 -10 3 -10 10v719c0 6 4 10 10 10h17c7 0 10 -3 10 -10v-71l5 -1c41 58 111 90 184 90zM306 492c-80 0 -152 -44 -184 -125v-212
c38 -81 103 -128 185 -128c115 0 194 93 194 233c0 138 -75 232 -195 232z" />
    <glyph glyph-name="q" unicode="q" horiz-adv-x="594" 
d="M281 527c74 0 144 -31 185 -90l4 1l1 71c0 7 3 10 10 10h16c7 0 10 -3 10 -10l1 -719c0 -6 -4 -10 -10 -10h-18c-6 0 -10 3 -10 10v290l-4 2c-45 -57 -105 -89 -179 -89c-136 0 -231 108 -231 270c0 156 89 264 225 264zM289 492c-120 0 -196 -94 -196 -232
c0 -140 79 -233 195 -233c82 0 147 47 184 128v212c-32 82 -104 125 -183 125z" />
    <glyph glyph-name="r" unicode="r" horiz-adv-x="336" 
d="M313 517v-20c0 -7 -3 -10 -10 -10c-79 -3 -144 -43 -180 -139l1 -338c0 -6 -4 -10 -10 -10h-18c-6 0 -10 4 -10 10v499c0 7 4 10 10 10h17c7 0 10 -3 10 -10v-93l6 -1c36 61 91 108 174 112c6 0 10 -4 10 -10z" />
    <glyph glyph-name="racute" unicode="&#x155;" horiz-adv-x="336" 
d="M278 741l-90 -106c-4 -4 -7 -6 -12 -6h-2c-8 0 -11 5 -6 12l77 106c3 4 6 6 12 6h15c9 0 11 -6 6 -12zM313 517v-20c0 -7 -3 -10 -10 -10c-79 -3 -144 -43 -180 -139l1 -338c0 -6 -4 -10 -10 -10h-18c-6 0 -10 4 -10 10v499c0 7 4 10 10 10h17c7 0 10 -3 10 -10v-93l6 -1
c36 61 91 108 174 112c6 0 10 -4 10 -10z" />
    <glyph glyph-name="rcaron" unicode="&#x159;" horiz-adv-x="336" 
d="M177 630h-8c-5 0 -8 2 -12 6l-84 102c-5 6 -3 12 6 12h13c6 0 9 -2 13 -6l66 -91h4l66 91c3 4 6 6 12 6h14c9 0 11 -6 6 -12l-84 -102c-4 -4 -7 -6 -12 -6zM123 416l6 -1c36 61 91 108 174 112c6 0 10 -4 10 -10v-20c0 -7 -3 -10 -10 -10c-79 -3 -144 -43 -180 -139
l1 -338c0 -6 -4 -10 -10 -10h-18c-6 0 -10 4 -10 10v499c0 7 4 10 10 10h17c7 0 10 -3 10 -10v-93z" />
    <glyph glyph-name="s" unicode="s" horiz-adv-x="482" 
d="M243 527c107 0 158 -54 182 -111c2 -6 -1 -11 -8 -11h-17c-5 0 -9 2 -12 7c-25 48 -67 81 -146 81c-77 0 -134 -35 -134 -96c0 -57 51 -79 130 -104l40 -12c105 -32 157 -73 157 -147c0 -88 -71 -141 -181 -141c-98 0 -171 43 -202 126c-3 6 1 11 8 11h18
c6 0 10 -3 12 -8c24 -61 87 -95 166 -95c77 0 140 32 140 104c0 62 -50 91 -140 119l-38 11c-89 28 -147 59 -147 133c0 83 74 133 172 133z" />
    <glyph glyph-name="sacute" unicode="&#x15b;" horiz-adv-x="482" 
d="M344 741l-90 -106c-4 -4 -7 -6 -12 -6h-2c-8 0 -11 5 -6 12l77 106c3 4 6 6 12 6h15c9 0 11 -6 6 -12zM243 527c107 0 158 -54 182 -111c2 -6 -1 -11 -8 -11h-17c-5 0 -9 2 -12 7c-25 48 -67 81 -146 81c-77 0 -134 -35 -134 -96c0 -57 51 -79 130 -104l40 -12
c105 -32 157 -73 157 -147c0 -88 -71 -141 -181 -141c-98 0 -171 43 -202 126c-3 6 1 11 8 11h18c6 0 10 -3 12 -8c24 -61 87 -95 166 -95c77 0 140 32 140 104c0 62 -50 91 -140 119l-38 11c-89 28 -147 59 -147 133c0 83 74 133 172 133z" />
    <glyph glyph-name="scaron" unicode="&#x161;" horiz-adv-x="482" 
d="M244 630h-8c-5 0 -8 2 -12 6l-84 102c-5 6 -3 12 6 12h13c6 0 9 -2 13 -6l66 -91h4l66 91c3 4 6 6 12 6h14c9 0 11 -6 6 -12l-84 -102c-4 -4 -7 -6 -12 -6zM238 293l40 -12c105 -32 157 -73 157 -147c0 -88 -71 -141 -181 -141c-98 0 -171 43 -202 126c-3 6 1 11 8 11h18
c6 0 10 -3 12 -8c24 -61 87 -95 166 -95c77 0 140 32 140 104c0 62 -50 91 -140 119l-38 11c-89 28 -147 59 -147 133c0 83 74 133 172 133c107 0 158 -54 182 -111c2 -6 -1 -11 -8 -11h-17c-5 0 -9 2 -12 7c-25 48 -67 81 -146 81c-77 0 -134 -35 -134 -96
c0 -57 51 -79 130 -104z" />
    <glyph glyph-name="scedilla" unicode="&#x15f;" horiz-adv-x="482" 
d="M435 134c0 -87 -70 -140 -178 -141l-19 -61c53 -6 96 -31 96 -84c0 -46 -33 -84 -95 -84c-22 0 -45 5 -69 17c-5 2 -7 7 -5 13l1 3c3 6 7 8 13 5c20 -9 44 -13 61 -13c42 0 67 23 67 57c0 37 -30 62 -90 65c-8 0 -11 4 -9 11l21 72c-85 7 -149 49 -177 125
c-3 6 1 11 8 11h18c6 0 10 -3 12 -8c24 -61 87 -95 166 -95c77 0 140 32 140 104c0 62 -50 91 -140 119l-38 11c-89 28 -147 59 -147 133c0 83 74 133 172 133c107 0 158 -54 182 -111c2 -6 -1 -11 -8 -11h-17c-5 0 -9 2 -12 7c-25 48 -67 81 -146 81
c-77 0 -134 -35 -134 -96c0 -57 51 -79 130 -104l40 -12c105 -32 157 -73 157 -147z" />
    <glyph glyph-name="germandbls" unicode="&#xdf;" horiz-adv-x="566" 
d="M353 382c102 -23 164 -90 164 -187c0 -120 -84 -198 -255 -201c-6 0 -10 4 -10 10v15c0 7 4 10 10 10c151 3 218 68 218 168c0 97 -75 164 -204 167c-6 0 -10 3 -10 10v13c0 7 4 10 10 10c114 3 174 63 174 148c0 82 -57 144 -154 144c-93 0 -180 -51 -180 -215l2 -464
c0 -6 -4 -10 -10 -10h-21c-6 0 -10 4 -10 10l2 464c0 178 103 249 216 249c117 0 191 -73 191 -175c0 -83 -48 -143 -133 -166z" />
    <glyph glyph-name="t" unicode="t" horiz-adv-x="322" 
d="M299 509v-11c0 -7 -3 -10 -10 -10h-116l1 -478c0 -6 -4 -10 -10 -10h-19c-6 0 -10 4 -10 10l1 478h-92c-7 0 -10 4 -10 10v11c0 6 4 10 10 10h92l1 203c0 7 3 10 10 10h16c7 0 10 -3 10 -10v-203h116c7 0 10 -4 10 -10z" />
    <glyph glyph-name="tcaron" unicode="&#x165;" horiz-adv-x="322" 
d="M314 734h8c7 0 11 -4 10 -11l-20 -151c-1 -6 -4 -9 -10 -9h-5c-7 0 -11 4 -10 11l17 151c1 6 4 9 10 9zM173 519h116c7 0 10 -3 10 -10v-11c0 -6 -3 -10 -10 -10h-116l1 -478c0 -6 -4 -10 -10 -10h-19c-6 0 -10 4 -10 10l1 478h-92c-7 0 -10 4 -10 10v11c0 6 4 10 10 10
h92l1 203c0 7 3 10 10 10h16c7 0 10 -3 10 -10v-203z" />
    <glyph glyph-name="tcedilla" unicode="&#x163;" horiz-adv-x="322" 
d="M299 509v-11c0 -7 -3 -10 -10 -10h-116l1 -478c0 -6 -2 -10 -6 -10l-22 -68c53 -6 96 -31 96 -84c0 -46 -33 -84 -95 -84c-22 0 -45 5 -69 17c-5 2 -7 7 -5 13l1 3c3 6 7 8 13 5c20 -9 44 -13 61 -13c42 0 67 23 67 57c0 37 -30 62 -90 65c-8 0 -11 4 -9 11l23 78
c-3 0 -4 4 -4 10l1 478h-92c-7 0 -10 4 -10 10v11c0 6 4 10 10 10h92l1 203c0 7 3 10 10 10h16c7 0 10 -3 10 -10v-203h116c7 0 10 -4 10 -10z" />
    <glyph glyph-name="u" unicode="u" horiz-adv-x="553" 
d="M467 509l1 -499c0 -6 -4 -10 -10 -10h-19c-6 0 -10 4 -10 10l1 78l-5 2c-42 -51 -100 -97 -185 -97c-93 0 -155 57 -154 172v344c0 6 4 10 10 10h17c7 0 10 -3 10 -10v-335c0 -99 48 -145 127 -145c77 0 137 46 180 123v357c0 7 4 10 10 10h17c7 0 10 -3 10 -10z" />
    <glyph glyph-name="uacute" unicode="&#xfa;" horiz-adv-x="553" 
d="M380 741l-90 -106c-4 -4 -7 -6 -12 -6h-2c-8 0 -11 5 -6 12l77 106c3 4 6 6 12 6h15c9 0 11 -6 6 -12zM467 509l1 -499c0 -6 -4 -10 -10 -10h-19c-6 0 -10 4 -10 10l1 78l-5 2c-42 -51 -100 -97 -185 -97c-93 0 -155 57 -154 172v344c0 6 4 10 10 10h17c7 0 10 -3 10 -10
v-335c0 -99 48 -145 127 -145c77 0 137 46 180 123v357c0 7 4 10 10 10h17c7 0 10 -3 10 -10z" />
    <glyph glyph-name="ucaron" unicode="&#x1d4;" horiz-adv-x="553" 
d="M279 630h-8c-5 0 -8 2 -12 6l-84 102c-5 6 -3 12 6 12h13c6 0 9 -2 13 -6l66 -91h4l66 91c3 4 6 6 12 6h14c9 0 11 -6 6 -12l-84 -102c-4 -4 -7 -6 -12 -6zM458 0h-19c-6 0 -10 4 -10 10l1 78l-5 2c-42 -51 -100 -97 -185 -97c-93 0 -155 57 -154 172v344c0 6 4 10 10 10
h17c7 0 10 -3 10 -10v-335c0 -99 48 -145 127 -145c77 0 137 46 180 123v357c0 7 4 10 10 10h17c7 0 10 -3 10 -10l1 -499c0 -6 -4 -10 -10 -10z" />
    <glyph glyph-name="ucircumflex" unicode="&#xfb;" horiz-adv-x="553" 
d="M274 726l-66 -91c-3 -4 -6 -6 -12 -6h-14c-9 0 -11 6 -6 12l84 102c4 4 7 6 12 6h8c5 0 8 -2 12 -6l84 -102c5 -6 3 -12 -6 -12h-13c-6 0 -9 2 -13 6l-66 91h-4zM458 0h-19c-6 0 -10 4 -10 10l1 78l-5 2c-42 -51 -100 -97 -185 -97c-93 0 -155 57 -154 172v344
c0 6 4 10 10 10h17c7 0 10 -3 10 -10v-335c0 -99 48 -145 127 -145c77 0 137 46 180 123v357c0 7 4 10 10 10h17c7 0 10 -3 10 -10l1 -499c0 -6 -4 -10 -10 -10z" />
    <glyph glyph-name="udieresis" unicode="&#xfc;" horiz-adv-x="553" 
d="M246 724v-52c0 -6 -3 -10 -10 -10h-9c-6 0 -10 4 -10 10v52c0 7 4 10 10 10h9c6 0 10 -3 10 -10zM366 724v-52c0 -6 -3 -10 -10 -10h-9c-6 0 -10 4 -10 10v52c0 7 4 10 10 10h9c6 0 10 -3 10 -10zM467 509l1 -499c0 -6 -4 -10 -10 -10h-19c-6 0 -10 4 -10 10l1 78l-5 2
c-42 -51 -100 -97 -185 -97c-93 0 -155 57 -154 172v344c0 6 4 10 10 10h17c7 0 10 -3 10 -10v-335c0 -99 48 -145 127 -145c77 0 137 46 180 123v357c0 7 4 10 10 10h17c7 0 10 -3 10 -10z" />
    <glyph glyph-name="ugrave" unicode="&#xf9;" horiz-adv-x="553" 
d="M182 753h15c6 0 9 -2 12 -6l77 -106c5 -7 2 -12 -6 -12h-2c-5 0 -8 2 -12 6l-90 106c-5 6 -3 12 6 12zM467 509l1 -499c0 -6 -4 -10 -10 -10h-19c-6 0 -10 4 -10 10l1 78l-5 2c-42 -51 -100 -97 -185 -97c-93 0 -155 57 -154 172v344c0 6 4 10 10 10h17c7 0 10 -3 10 -10
v-335c0 -99 48 -145 127 -145c77 0 137 46 180 123v357c0 7 4 10 10 10h17c7 0 10 -3 10 -10z" />
    <glyph glyph-name="uhungarumlaut" unicode="&#x171;" horiz-adv-x="553" 
d="M358 725l-90 -106c-4 -4 -7 -6 -12 -6h-2c-8 0 -11 5 -6 12l77 106c3 4 6 6 12 6h15c9 0 11 -6 6 -12zM479 725l-90 -106c-4 -4 -7 -6 -12 -6h-2c-8 0 -11 5 -6 12l77 106c3 4 6 6 12 6h15c9 0 11 -6 6 -12zM467 509l1 -499c0 -6 -4 -10 -10 -10h-19c-6 0 -10 4 -10 10
l1 78l-5 2c-42 -51 -100 -97 -185 -97c-93 0 -155 57 -154 172v344c0 6 4 10 10 10h17c7 0 10 -3 10 -10v-335c0 -99 48 -145 127 -145c77 0 137 46 180 123v357c0 7 4 10 10 10h17c7 0 10 -3 10 -10z" />
    <glyph glyph-name="umacron" unicode="&#x16b;" horiz-adv-x="553" 
d="M368 690v-6c0 -6 -3 -10 -10 -10h-164c-7 0 -10 4 -10 10v6c0 7 4 10 10 10h164c7 0 10 -3 10 -10zM467 509l1 -499c0 -6 -4 -10 -10 -10h-19c-6 0 -10 4 -10 10l1 78l-5 2c-42 -51 -100 -97 -185 -97c-93 0 -155 57 -154 172v344c0 6 4 10 10 10h17c7 0 10 -3 10 -10
v-335c0 -99 48 -145 127 -145c77 0 137 46 180 123v357c0 7 4 10 10 10h17c7 0 10 -3 10 -10z" />
    <glyph glyph-name="uring" unicode="&#x16f;" horiz-adv-x="553" 
d="M277 758c40 0 73 -29 73 -73c0 -45 -33 -74 -73 -74s-74 29 -74 74c0 44 34 73 74 73zM277 736c-28 0 -51 -20 -51 -51s23 -51 51 -51s51 20 51 51s-23 51 -51 51zM467 509l1 -499c0 -6 -4 -10 -10 -10h-19c-6 0 -10 4 -10 10l1 78l-5 2c-42 -51 -100 -97 -185 -97
c-93 0 -155 57 -154 172v344c0 6 4 10 10 10h17c7 0 10 -3 10 -10v-335c0 -99 48 -145 127 -145c77 0 137 46 180 123v357c0 7 4 10 10 10h17c7 0 10 -3 10 -10z" />
    <glyph glyph-name="v" unicode="v" horiz-adv-x="474" 
d="M446 508l-182 -500c-2 -5 -6 -8 -12 -8h-35c-6 0 -10 3 -12 8l-177 500c-2 7 1 11 8 11h16c6 0 10 -3 12 -8l168 -470h7l172 470c2 5 6 8 12 8h15c7 0 10 -5 8 -11z" />
    <glyph glyph-name="w" unicode="w" horiz-adv-x="749" 
d="M699 519h14c7 0 11 -4 9 -11l-151 -500c-2 -5 -6 -8 -12 -8h-33c-6 0 -10 3 -12 8l-140 440h-5l-133 -440c-2 -5 -6 -8 -12 -8h-34c-6 0 -10 3 -12 8l-151 500c-2 7 2 11 9 11h16c6 0 10 -3 12 -8l141 -467h6l142 467c2 5 6 8 12 8h16c6 0 10 -3 12 -8l146 -467h6
l142 467c2 5 6 8 12 8z" />
    <glyph glyph-name="wacute" unicode="&#x1e83;" horiz-adv-x="749" 
d="M476 741l-90 -106c-4 -4 -7 -6 -12 -6h-2c-8 0 -11 5 -6 12l77 106c3 4 6 6 12 6h15c9 0 11 -6 6 -12zM699 519h14c7 0 11 -4 9 -11l-151 -500c-2 -5 -6 -8 -12 -8h-33c-6 0 -10 3 -12 8l-140 440h-5l-133 -440c-2 -5 -6 -8 -12 -8h-34c-6 0 -10 3 -12 8l-151 500
c-2 7 2 11 9 11h16c6 0 10 -3 12 -8l141 -467h6l142 467c2 5 6 8 12 8h16c6 0 10 -3 12 -8l146 -467h6l142 467c2 5 6 8 12 8z" />
    <glyph glyph-name="wcircumflex" unicode="&#x175;" horiz-adv-x="749" 
d="M371 726l-66 -91c-3 -4 -6 -6 -12 -6h-14c-9 0 -11 6 -6 12l84 102c4 4 7 6 12 6h8c5 0 8 -2 12 -6l84 -102c5 -6 3 -12 -6 -12h-13c-6 0 -9 2 -13 6l-66 91h-4zM699 519h14c7 0 11 -4 9 -11l-151 -500c-2 -5 -6 -8 -12 -8h-33c-6 0 -10 3 -12 8l-140 440h-5l-133 -440
c-2 -5 -6 -8 -12 -8h-34c-6 0 -10 3 -12 8l-151 500c-2 7 2 11 9 11h16c6 0 10 -3 12 -8l141 -467h6l142 467c2 5 6 8 12 8h16c6 0 10 -3 12 -8l146 -467h6l142 467c2 5 6 8 12 8z" />
    <glyph glyph-name="wdieresis" unicode="&#x1e85;" horiz-adv-x="749" 
d="M343 724v-52c0 -6 -3 -10 -10 -10h-9c-6 0 -10 4 -10 10v52c0 7 4 10 10 10h9c6 0 10 -3 10 -10zM463 724v-52c0 -6 -3 -10 -10 -10h-9c-6 0 -10 4 -10 10v52c0 7 4 10 10 10h9c6 0 10 -3 10 -10zM699 519h14c7 0 11 -4 9 -11l-151 -500c-2 -5 -6 -8 -12 -8h-33
c-6 0 -10 3 -12 8l-140 440h-5l-133 -440c-2 -5 -6 -8 -12 -8h-34c-6 0 -10 3 -12 8l-151 500c-2 7 2 11 9 11h16c6 0 10 -3 12 -8l141 -467h6l142 467c2 5 6 8 12 8h16c6 0 10 -3 12 -8l146 -467h6l142 467c2 5 6 8 12 8z" />
    <glyph glyph-name="wgrave" unicode="&#x1e81;" horiz-adv-x="749" 
d="M377 629h-2c-5 0 -8 2 -12 6l-90 106c-5 6 -3 12 6 12h15c6 0 9 -2 12 -6l77 -106c5 -7 2 -12 -6 -12zM699 519h14c7 0 11 -4 9 -11l-151 -500c-2 -5 -6 -8 -12 -8h-33c-6 0 -10 3 -12 8l-140 440h-5l-133 -440c-2 -5 -6 -8 -12 -8h-34c-6 0 -10 3 -12 8l-151 500
c-2 7 2 11 9 11h16c6 0 10 -3 12 -8l141 -467h6l142 467c2 5 6 8 12 8h16c6 0 10 -3 12 -8l146 -467h6l142 467c2 5 6 8 12 8z" />
    <glyph glyph-name="x" unicode="x" horiz-adv-x="499" 
d="M445 0h-21c-6 0 -9 2 -12 6l-164 233l-164 -233c-3 -4 -6 -6 -12 -6h-20c-8 0 -11 5 -6 12l181 257l-166 238c-5 7 -2 12 6 12h18c6 0 9 -2 12 -6l157 -221l158 221c3 4 6 6 12 6h18c8 0 11 -5 6 -12l-173 -245l176 -250c5 -7 2 -12 -6 -12z" />
    <glyph glyph-name="y" unicode="y" horiz-adv-x="473" 
d="M421 519h17c7 0 10 -5 8 -11l-261 -720c-2 -5 -6 -8 -12 -8h-21c-7 0 -10 5 -8 12l72 193l-188 523c-2 6 1 11 8 11h16c6 0 10 -3 12 -8l168 -469h5l173 469c2 5 6 8 11 8z" />
    <glyph glyph-name="yacute" unicode="&#xfd;" horiz-adv-x="473" 
d="M341 741l-90 -106c-4 -4 -7 -6 -12 -6h-2c-8 0 -11 5 -6 12l77 106c3 4 6 6 12 6h15c9 0 11 -6 6 -12zM421 519h17c7 0 10 -5 8 -11l-261 -720c-2 -5 -6 -8 -12 -8h-21c-7 0 -10 5 -8 12l72 193l-188 523c-2 6 1 11 8 11h16c6 0 10 -3 12 -8l168 -469h5l173 469
c2 5 6 8 11 8z" />
    <glyph glyph-name="ycircumflex" unicode="&#x177;" horiz-adv-x="473" 
d="M236 726l-66 -91c-3 -4 -6 -6 -12 -6h-14c-9 0 -11 6 -6 12l84 102c4 4 7 6 12 6h8c5 0 8 -2 12 -6l84 -102c5 -6 3 -12 -6 -12h-13c-6 0 -9 2 -13 6l-66 91h-4zM421 519h17c7 0 10 -5 8 -11l-261 -720c-2 -5 -6 -8 -12 -8h-21c-7 0 -10 5 -8 12l72 193l-188 523
c-2 6 1 11 8 11h16c6 0 10 -3 12 -8l168 -469h5l173 469c2 5 6 8 11 8z" />
    <glyph glyph-name="ydieresis" unicode="&#xff;" horiz-adv-x="473" 
d="M207 724v-52c0 -6 -3 -10 -10 -10h-9c-6 0 -10 4 -10 10v52c0 7 4 10 10 10h9c6 0 10 -3 10 -10zM327 724v-52c0 -6 -3 -10 -10 -10h-9c-6 0 -10 4 -10 10v52c0 7 4 10 10 10h9c6 0 10 -3 10 -10zM421 519h17c7 0 10 -5 8 -11l-261 -720c-2 -5 -6 -8 -12 -8h-21
c-7 0 -10 5 -8 12l72 193l-188 523c-2 6 1 11 8 11h16c6 0 10 -3 12 -8l168 -469h5l173 469c2 5 6 8 11 8z" />
    <glyph glyph-name="ygrave" unicode="&#x1ef3;" horiz-adv-x="473" 
d="M241 629h-2c-5 0 -8 2 -12 6l-90 106c-5 6 -3 12 6 12h15c6 0 9 -2 12 -6l77 -106c5 -7 2 -12 -6 -12zM421 519h17c7 0 10 -5 8 -11l-261 -720c-2 -5 -6 -8 -12 -8h-21c-7 0 -10 5 -8 12l72 193l-188 523c-2 6 1 11 8 11h16c6 0 10 -3 12 -8l168 -469h5l173 469
c2 5 6 8 11 8z" />
    <glyph glyph-name="z" unicode="z" horiz-adv-x="498" 
d="M439 509v-15s-2 -6 -5 -10l-331 -449v-3h330c6 0 10 -3 10 -10v-12c0 -6 -3 -10 -10 -10h-367c-6 0 -10 4 -10 10v14v1s3 6 5 10l334 450v3h-316c-6 0 -10 4 -10 10v11c0 6 4 10 10 10h350c6 0 10 -3 10 -10z" />
    <glyph glyph-name="zacute" unicode="&#x17a;" horiz-adv-x="498" 
d="M351 741l-90 -106c-4 -4 -7 -6 -12 -6h-2c-8 0 -11 5 -6 12l77 106c3 4 6 6 12 6h15c9 0 11 -6 6 -12zM439 509v-15s-2 -6 -5 -10l-331 -449v-3h330c6 0 10 -3 10 -10v-12c0 -6 -3 -10 -10 -10h-367c-6 0 -10 4 -10 10v14v1s3 6 5 10l334 450v3h-316c-6 0 -10 4 -10 10
v11c0 6 4 10 10 10h350c6 0 10 -3 10 -10z" />
    <glyph glyph-name="zcaron" unicode="&#x17e;" horiz-adv-x="498" 
d="M251 630h-8c-5 0 -8 2 -12 6l-84 102c-5 6 -3 12 6 12h13c6 0 9 -2 13 -6l66 -91h4l66 91c3 4 6 6 12 6h14c9 0 11 -6 6 -12l-84 -102c-4 -4 -7 -6 -12 -6zM103 32h330c6 0 10 -3 10 -10v-12c0 -6 -3 -10 -10 -10h-367c-6 0 -10 4 -10 10v14v1s3 6 5 10l334 450v3h-316
c-6 0 -10 4 -10 10v11c0 6 4 10 10 10h350c6 0 10 -3 10 -10v-15s-2 -6 -5 -10l-331 -449v-3z" />
    <glyph glyph-name="zdotaccent" unicode="&#x17c;" horiz-adv-x="498" 
d="M266 724v-52c0 -6 -3 -10 -10 -10h-17c-7 0 -10 4 -10 10v52c0 7 4 10 10 10h17c7 0 10 -3 10 -10zM439 509v-15s-2 -6 -5 -10l-331 -449v-3h330c6 0 10 -3 10 -10v-12c0 -6 -3 -10 -10 -10h-367c-6 0 -10 4 -10 10v14v1s3 6 5 10l334 450v3h-316c-6 0 -10 4 -10 10v11
c0 6 4 10 10 10h350c6 0 10 -3 10 -10z" />
    <glyph glyph-name="zero" unicode="0" horiz-adv-x="604" 
d="M306 725c149 0 249 -140 249 -356c0 -222 -107 -376 -257 -376c-148 0 -249 149 -249 366c0 221 106 366 257 366zM304 691c-130 0 -218 -129 -218 -329s87 -334 214 -334c129 0 218 136 218 336c0 201 -86 327 -214 327z" />
    <glyph glyph-name="one" unicode="1" horiz-adv-x="398" 
d="M311 0h-20c-6 0 -10 4 -10 10l1 677h-4l-198 -171c-4 -4 -9 -3 -14 1l-10 11c-5 5 -4 10 1 15l202 171c3 4 7 5 12 5h39c7 0 10 -3 10 -10l1 -699c0 -6 -4 -10 -10 -10z" />
    <glyph glyph-name="two" unicode="2" horiz-adv-x="578" 
d="M136 34l383 1c6 0 10 -4 10 -10v-16c0 -6 -4 -10 -10 -10l-428 1c-7 0 -10 3 -10 10v12c0 6 1 9 5 14l279 311c67 73 100 124 100 188c0 91 -57 154 -158 154c-88 0 -152 -49 -180 -124c-2 -5 -6 -8 -12 -8h-16c-7 0 -11 4 -8 11c33 92 108 155 217 155
c119 0 194 -74 194 -187c0 -73 -36 -130 -110 -211l-256 -287v-4z" />
    <glyph glyph-name="three" unicode="3" horiz-adv-x="550" 
d="M340 381c100 -23 161 -87 161 -180c0 -125 -88 -207 -223 -207c-119 0 -204 64 -227 155c-1 7 2 11 9 11h19c6 0 9 -3 11 -9c19 -77 92 -123 187 -123c116 0 187 69 187 175c0 96 -80 160 -214 160h-37c-6 0 -10 4 -10 10v13c0 7 4 10 10 10h37c126 0 194 60 194 150
c0 81 -59 143 -160 143c-88 0 -152 -49 -180 -124c-2 -5 -6 -8 -12 -8h-17c-7 0 -11 5 -8 11c34 91 109 155 218 155c119 0 195 -73 195 -175c0 -85 -51 -144 -140 -167z" />
    <glyph glyph-name="four" unicode="4" horiz-adv-x="590" 
d="M541 230v-15c0 -6 -3 -10 -10 -10h-103v-195c0 -6 -4 -10 -10 -10h-19c-6 0 -10 4 -10 10l1 195h-331c-6 0 -10 4 -10 10v14c0 8 1 11 5 16l329 467c4 5 8 7 13 7h21c7 0 10 -3 10 -10l1 -469h103c6 0 10 -3 10 -10zM390 240l2 419h-5l-294 -416v-3h297z" />
    <glyph glyph-name="five" unicode="5" horiz-adv-x="557" 
d="M474 709v-15c0 -6 -3 -10 -10 -10h-312l-26 -284h4c41 31 97 48 154 48c136 0 224 -97 224 -229c0 -137 -93 -225 -232 -225c-121 0 -204 67 -225 155c-1 7 2 11 9 11h19c6 0 9 -3 11 -9c18 -71 86 -123 186 -123c119 0 195 74 195 191c0 113 -71 195 -190 195
c-59 0 -115 -20 -153 -50c-4 -3 -7 -4 -12 -4l-18 1c-6 0 -10 4 -9 10l32 338c1 7 4 10 11 10h332c6 0 10 -3 10 -10z" />
    <glyph glyph-name="six" unicode="6" horiz-adv-x="591" 
d="M308 429c134 0 234 -87 234 -221c0 -132 -99 -215 -224 -215c-132 0 -246 93 -246 316c0 274 96 418 255 418c101 0 165 -58 187 -135c2 -7 -1 -11 -8 -11l-16 -1c-6 0 -10 3 -12 8c-20 59 -74 104 -152 104c-127 0 -205 -115 -217 -328h5c51 37 119 65 194 65zM320 27
c108 0 186 69 186 180c0 112 -83 187 -202 187c-77 0 -148 -31 -196 -69v-16c0 -204 98 -282 212 -282z" />
    <glyph glyph-name="seven" unicode="7" horiz-adv-x="536" 
d="M59 719h418c6 0 10 -3 10 -10v-11c0 -5 -2 -10 -4 -16c-101 -198 -197 -422 -284 -674c-2 -5 -6 -8 -12 -8h-22c-7 0 -10 4 -8 12c89 250 186 472 287 668v4l-385 1c-7 0 -10 3 -10 10v14c0 7 3 10 10 10z" />
    <glyph glyph-name="eight" unicode="8" horiz-adv-x="604" 
d="M302 738c121 0 199 -79 199 -186c0 -88 -51 -140 -115 -163v-2c91 -26 146 -99 146 -193c0 -121 -92 -202 -230 -202s-230 81 -230 202c0 95 56 167 144 193v3c-64 22 -113 75 -113 162c0 107 79 186 199 186zM302 707c-98 0 -163 -67 -163 -156c0 -87 64 -150 163 -150
s163 63 163 150c0 89 -65 156 -163 156zM302 371c-116 0 -193 -74 -193 -176c0 -101 76 -171 193 -171c118 0 193 70 193 171c0 102 -77 176 -193 176z" />
    <glyph glyph-name="nine" unicode="9" horiz-adv-x="586" 
d="M273 727c129 0 241 -92 241 -317c0 -274 -95 -417 -255 -417c-105 0 -173 58 -196 135c-2 7 1 11 9 11h16c6 0 10 -3 12 -8c20 -59 78 -103 160 -103c129 0 208 118 217 337h-4c-48 -37 -117 -65 -191 -65c-129 0 -228 85 -228 216c0 130 97 211 219 211zM286 334
c75 0 144 33 192 71v6c0 204 -95 281 -207 281c-104 0 -181 -67 -181 -174c0 -111 81 -184 196 -184z" />
    <glyph glyph-name="zerosuperior" unicode="&#x2070;" horiz-adv-x="306" 
d="M155 723c61 0 102 -49 102 -128c0 -81 -43 -134 -105 -134c-61 0 -103 51 -103 131s43 131 106 131zM153 696c-45 0 -76 -38 -76 -103c0 -67 32 -106 76 -106c45 0 76 40 76 105c0 68 -32 104 -76 104z" />
    <glyph glyph-name="onesuperior" unicode="&#xb9;" horiz-adv-x="252" 
d="M174 707l1 -232c0 -6 -4 -10 -10 -10h-11c-6 0 -10 4 -10 10l1 217h-2l-68 -52c-5 -4 -10 -4 -15 1l-4 4c-4 5 -4 10 1 14l69 54c3 3 7 4 12 4h26c7 0 10 -3 10 -10z" />
    <glyph glyph-name="twosuperior" unicode="&#xb2;" horiz-adv-x="315" 
d="M174 723c53 0 83 -32 83 -71c0 -27 -14 -51 -48 -82l-86 -79v-2h133c7 0 10 -3 10 -10v-4c0 -6 -3 -10 -10 -10h-167c-6 0 -10 4 -10 10v6c0 3 1 6 4 9l106 97c27 25 40 42 40 63c0 27 -20 46 -56 46c-29 0 -52 -11 -64 -33c-2 -6 -6 -8 -11 -8h-8c-7 0 -11 3 -9 8
c12 31 44 60 93 60z" />
    <glyph glyph-name="threesuperior" unicode="&#xb3;" horiz-adv-x="291" 
d="M180 599c36 -9 62 -29 62 -63c0 -44 -36 -76 -95 -76c-52 0 -85 26 -95 56c-3 7 1 11 8 11h9c6 0 9 -3 11 -8c9 -21 33 -34 66 -34c42 0 67 20 67 53c0 30 -28 48 -82 48h-8c-6 0 -10 4 -10 10v3c0 7 4 10 10 10h8c51 0 74 19 74 45c0 25 -21 43 -58 43
c-29 0 -51 -11 -62 -32c-2 -5 -6 -8 -11 -8h-7c-8 0 -12 5 -8 12c13 28 42 54 91 54c53 0 82 -30 82 -66c0 -26 -16 -49 -52 -58z" />
    <glyph glyph-name="foursuperior" unicode="&#x2074;" horiz-adv-x="308" 
d="M259 540v-5c0 -6 -3 -10 -10 -10h-36v-50c0 -6 -4 -10 -10 -10h-8c-6 0 -10 4 -10 10v50h-126c-6 0 -10 4 -10 10v9c0 6 1 9 3 12l129 158c2 3 4 4 8 4h13c7 0 10 -3 10 -10l1 -158h36c6 0 10 -3 10 -10zM185 550v129h-2l-106 -128v-1h108z" />
    <glyph glyph-name="fivesuperior" unicode="&#x2075;" horiz-adv-x="291" 
d="M154 627c54 0 89 -35 89 -83s-37 -84 -98 -84c-50 0 -82 25 -93 55c-2 7 1 11 9 11h8c5 0 9 -3 11 -8c11 -20 34 -33 66 -33c43 0 69 22 69 58c0 34 -25 58 -67 58c-21 0 -40 -5 -53 -12c-5 -3 -8 -4 -13 -4h-9c-7 0 -11 4 -10 11l14 113c1 6 4 9 10 9h133
c7 0 10 -3 10 -10v-5c0 -6 -3 -10 -10 -10h-120l-9 -82h3c16 10 38 16 60 16z" />
    <glyph glyph-name="sixsuperior" unicode="&#x2076;" horiz-adv-x="320" 
d="M178 619c54 0 93 -32 93 -79c0 -49 -42 -80 -95 -80c-56 0 -104 35 -104 118c0 92 41 145 107 145c41 0 70 -22 81 -49c2 -7 -2 -11 -9 -11h-7c-5 0 -9 2 -11 8c-9 16 -28 27 -53 27c-47 0 -74 -37 -78 -100h1c20 12 46 21 75 21zM178 485c38 0 66 20 66 53
s-27 57 -72 57c-26 0 -52 -9 -71 -21c2 -65 36 -89 77 -89z" />
    <glyph glyph-name="sevensuperior" unicode="&#x2077;" horiz-adv-x="283" 
d="M59 718h166c6 0 10 -3 10 -10v-5c0 -3 -1 -7 -4 -11c-38 -65 -75 -139 -108 -219c-2 -6 -6 -8 -11 -8h-12c-8 0 -11 5 -8 12c34 78 70 149 110 213v3l-143 -1c-6 0 -10 4 -10 10v6c0 7 3 10 10 10z" />
    <glyph glyph-name="eightsuperior" unicode="&#x2078;" horiz-adv-x="338" 
d="M169 723c51 0 85 -30 85 -69c0 -27 -17 -47 -43 -56v-1c32 -9 55 -34 55 -67c0 -41 -38 -70 -97 -70c-58 0 -97 29 -97 70c0 34 24 58 56 67v1c-27 10 -43 29 -43 56c0 39 33 69 84 69zM169 700c-35 0 -58 -21 -58 -47s22 -45 58 -45s58 20 58 45c0 27 -23 47 -58 47z
M169 585c-41 0 -69 -23 -69 -54c0 -27 27 -48 69 -48c43 0 69 21 69 48c0 31 -27 54 -69 54z" />
    <glyph glyph-name="ninesuperior" unicode="&#x2079;" horiz-adv-x="321" 
d="M150 723c51 0 99 -34 99 -118c0 -93 -41 -145 -108 -145c-44 0 -73 22 -84 49c-2 7 1 11 9 11h6c5 1 9 -2 12 -7c9 -17 30 -28 57 -28c48 0 76 38 80 102h-3c-19 -11 -42 -21 -70 -21c-52 0 -89 32 -89 79c0 48 41 78 91 78zM153 591c26 0 49 8 68 20
c-3 65 -38 87 -73 87c-36 0 -61 -19 -61 -52c0 -32 24 -55 66 -55z" />
    <glyph glyph-name="asterisk" unicode="*" horiz-adv-x="386" 
d="M310 525l-7 -11c-3 -6 -8 -7 -13 -3l-92 61l-22 -95c-2 -7 -7 -9 -13 -5l-7 4c-5 3 -7 8 -5 14l23 63l-45 -50c-4 -5 -9 -6 -14 -3l-7 4c-6 4 -7 9 -1 14l73 65l-101 51c-6 3 -7 8 -3 14l7 11c3 6 8 7 14 3l92 -62l22 96c2 7 7 9 13 5l6 -4c6 -3 7 -8 5 -13l-23 -66
l46 53c4 5 9 5 14 2l6 -3c6 -4 7 -9 1 -14l-72 -67l100 -50c6 -3 7 -8 3 -14z" />
    <glyph glyph-name="backslash" unicode="\" horiz-adv-x="445" 
d="M18 731h18c5 0 9 -2 12 -7l341 -712c4 -7 1 -12 -7 -12h-19c-5 0 -9 2 -12 7l-340 712c-4 7 -1 12 7 12z" />
    <glyph glyph-name="periodcentered" unicode="&#xb7;" horiz-adv-x="331" 
d="M187 302v-58c0 -6 -3 -10 -10 -10h-23c-6 0 -10 4 -10 10v58c0 6 4 10 10 10h23c6 0 10 -3 10 -10z" />
    <glyph glyph-name="bullet" unicode="&#x2022;" horiz-adv-x="472" 
d="M236 382c51 0 92 -42 92 -92c0 -51 -41 -92 -92 -92c-50 0 -92 41 -92 92c0 50 42 92 92 92z" />
    <glyph glyph-name="colon" unicode=":" horiz-adv-x="222" 
d="M152 525v-60c0 -6 -3 -10 -10 -10h-24c-6 0 -10 4 -10 10v60c0 6 4 10 10 10h24c6 0 10 -3 10 -10zM151 85v-60c0 -6 -3 -10 -10 -10h-23c-6 0 -10 4 -10 10v60c0 6 4 10 10 10h23c6 0 10 -3 10 -10z" />
    <glyph glyph-name="comma" unicode="," horiz-adv-x="268" 
d="M164 67v-49c0 -60 -15 -92 -39 -121c-4 -5 -9 -6 -14 -2c-4 2 -4 6 0 12c22 33 27 66 12 88c-3 4 -5 7 -5 12v60c0 6 4 10 10 10h26c6 0 10 -3 10 -10z" />
    <glyph glyph-name="ellipsis" unicode="&#x2026;" horiz-adv-x="744" 
d="M151 87v-60c0 -6 -3 -10 -10 -10h-23c-6 0 -10 4 -10 10v60c0 6 4 10 10 10h23c6 0 10 -3 10 -10zM413 87v-60c0 -6 -3 -10 -10 -10h-24c-6 0 -10 4 -10 10v60c0 6 4 10 10 10h24c6 0 10 -3 10 -10zM674 87v-60c0 -6 -3 -10 -10 -10h-24c-6 0 -10 4 -10 10v60
c0 6 4 10 10 10h24c6 0 10 -3 10 -10z" />
    <glyph glyph-name="exclam" unicode="!" horiz-adv-x="252" 
d="M146 711l1 -493c0 -6 -4 -10 -10 -10h-19c-6 0 -10 4 -10 10l1 493c0 7 3 10 10 10h17c7 0 10 -3 10 -10zM148 70v-60c0 -6 -3 -10 -10 -10h-24c-6 0 -10 4 -10 10v60c0 6 4 10 10 10h24c6 0 10 -3 10 -10z" />
    <glyph glyph-name="exclamdown" unicode="&#xa1;" horiz-adv-x="253" 
d="M105 452v60c0 7 4 10 10 10h24c6 0 10 -3 10 -10v-60c0 -6 -3 -10 -10 -10h-24c-6 0 -10 4 -10 10zM107 -190l-1 494c0 6 4 10 10 10h19c6 0 10 -4 10 -10l-1 -494c0 -7 -3 -10 -10 -10h-17c-7 0 -10 3 -10 10z" />
    <glyph glyph-name="numbersign" unicode="#" horiz-adv-x="727" 
d="M511 477l-39 -188h152c7 0 10 -4 9 -11l-2 -11c-1 -6 -5 -9 -11 -9h-154l-51 -249c-1 -6 -5 -9 -11 -9h-13c-7 0 -10 4 -9 11l51 247h-199l-51 -249c-1 -6 -5 -9 -11 -9h-14c-7 0 -10 4 -9 11l52 247h-140c-7 0 -10 4 -9 11l3 11c1 6 5 9 11 9h141l39 188h-142
c-7 0 -10 4 -9 11l2 11c1 6 5 9 11 9h145l44 214c1 6 5 9 11 9h12c7 0 10 -4 9 -11l-44 -212h200l44 214c1 6 5 9 11 9h12c7 0 10 -4 9 -11l-44 -212h149c7 0 10 -4 9 -11l-2 -11c-1 -6 -5 -9 -11 -9h-151zM478 477h-199l-39 -188h199z" />
    <glyph glyph-name="period" unicode="." horiz-adv-x="251" 
d="M147 69v-59c0 -6 -3 -10 -10 -10h-23c-6 0 -10 4 -10 10v59c0 7 4 10 10 10h23c6 0 10 -3 10 -10z" />
    <glyph glyph-name="question" unicode="?" horiz-adv-x="534" 
d="M277 723c126 0 205 -76 205 -188c0 -111 -87 -184 -214 -253l-1 -97c0 -7 -3 -10 -10 -10h-19c-6 0 -10 4 -10 10l1 106c0 6 2 9 7 12c134 68 208 135 208 232c0 88 -61 152 -168 152c-92 0 -159 -47 -183 -122c-2 -5 -6 -8 -12 -8h-17c-7 0 -11 4 -9 10
c30 94 109 156 222 156zM270 66v-58c0 -6 -3 -10 -10 -10h-23c-6 0 -10 4 -10 10v58c0 6 4 10 10 10h23c6 0 10 -3 10 -10z" />
    <glyph glyph-name="questiondown" unicode="&#xbf;" horiz-adv-x="534" 
d="M287 453v59c0 6 4 10 10 10h23c6 0 10 -3 10 -10v-59c0 -7 -3 -10 -10 -10h-23c-6 0 -10 3 -10 10zM280 -203c-125 0 -204 76 -204 187s86 185 213 253l1 97c0 7 3 10 10 10h19c6 0 10 -4 10 -10l-1 -105c0 -6 -2 -9 -7 -12c-134 -69 -208 -136 -208 -233
c0 -88 61 -152 168 -152c92 0 159 47 183 123c2 5 6 8 12 8h17c7 0 11 -4 9 -10c-30 -94 -109 -156 -222 -156z" />
    <glyph glyph-name="quotedbl" unicode="&#x22;" horiz-adv-x="332" 
d="M146 729l-26 -193c-1 -6 -4 -9 -10 -9h-10c-7 0 -11 4 -10 11l20 193c1 6 4 9 11 9h15c7 0 10 -4 10 -11zM282 729l-25 -193c-1 -6 -4 -9 -10 -9h-11c-7 0 -11 4 -10 11l21 193c1 6 4 9 10 9h15c7 0 11 -4 10 -11z" />
    <glyph glyph-name="quotesingle" unicode="'" horiz-adv-x="195" 
d="M146 729l-26 -193c-1 -6 -4 -9 -10 -9h-10c-7 0 -11 4 -10 11l20 193c1 6 4 9 11 9h15c7 0 10 -4 10 -11z" />
    <glyph glyph-name="semicolon" unicode=";" horiz-adv-x="300" 
d="M230 525v-60c0 -6 -3 -10 -10 -10h-24c-6 0 -10 4 -10 10v60c0 6 4 10 10 10h24c6 0 10 -3 10 -10zM164 67v-49c0 -60 -15 -92 -39 -121c-4 -5 -9 -6 -14 -2c-4 2 -4 6 0 12c22 33 27 66 12 88c-3 4 -5 7 -5 12v60c0 6 4 10 10 10h26c6 0 10 -3 10 -10z" />
    <glyph glyph-name="slash" unicode="/" horiz-adv-x="445" 
d="M434 719l-340 -712c-3 -5 -7 -7 -12 -7h-19c-8 0 -11 5 -7 12l340 712c3 5 7 7 12 7h19c8 0 11 -5 7 -12z" />
    <glyph glyph-name="underscore" unicode="_" horiz-adv-x="556" 
d="M500 -112v-6c0 -6 -3 -10 -10 -10h-424c-6 0 -10 3 -10 10v6c0 6 4 10 10 10h424c6 0 10 -3 10 -10z" />
    <glyph glyph-name="braceleft" unicode="{" horiz-adv-x="394" 
d="M324 740v-12c0 -6 -3 -10 -10 -10h-6c-73 0 -105 -25 -105 -116v-212c0 -84 -20 -106 -55 -124v-4c35 -17 55 -42 55 -125v-213c0 -90 32 -115 105 -115h6c7 0 10 -4 10 -10v-12c0 -6 -3 -10 -10 -10h-13c-87 0 -133 33 -133 143v207c0 78 -11 105 -60 120
c-6 1 -9 5 -9 11v13c0 6 3 10 9 11c49 15 60 40 60 119v207c0 109 46 142 133 142h13c7 0 10 -3 10 -10z" />
    <glyph glyph-name="braceright" unicode="}" horiz-adv-x="394" 
d="M70 -213v12c0 6 4 10 10 10h6c73 0 105 25 105 115v213c0 84 20 106 55 124v4c-35 17 -55 42 -55 125v212c0 91 -32 116 -105 116h-6c-6 0 -10 4 -10 10v12c0 6 4 10 10 10h13c87 0 133 -34 133 -143v-207c0 -79 11 -105 60 -120c6 -1 9 -5 9 -11v-13c0 -6 -3 -10 -9 -11
c-49 -15 -60 -41 -60 -119v-207c0 -109 -46 -142 -133 -142h-13c-7 0 -10 3 -10 10z" />
    <glyph glyph-name="bracketleft" unicode="[" horiz-adv-x="372" 
d="M135 699l1 -888h156c6 0 10 -4 10 -10v-11c0 -6 -3 -10 -10 -10h-183c-6 0 -10 4 -10 10l1 930c0 7 3 10 10 10h182c7 0 10 -3 10 -10v-11c0 -6 -3 -10 -10 -10h-157z" />
    <glyph glyph-name="bracketright" unicode="]" horiz-adv-x="372" 
d="M80 730h183c6 0 10 -4 10 -10l-1 -930c0 -7 -3 -10 -10 -10h-182c-7 0 -10 3 -10 10v11c0 6 3 10 10 10h157l-1 888h-156c-6 0 -10 4 -10 10v11c0 6 3 10 10 10z" />
    <glyph glyph-name="braceleft.case" horiz-adv-x="394" 
d="M324 840v-12c0 -6 -3 -10 -10 -10h-6c-73 0 -105 -25 -105 -116v-212c0 -84 -20 -106 -55 -124v-4c35 -17 55 -42 55 -125v-213c0 -90 32 -115 105 -115h6c7 0 10 -4 10 -10v-12c0 -6 -3 -10 -10 -10h-13c-87 0 -133 33 -133 143v207c0 78 -11 105 -60 120
c-6 1 -9 5 -9 11v13c0 6 3 10 9 11c49 15 60 40 60 119v207c0 109 46 142 133 142h13c7 0 10 -3 10 -10z" />
    <glyph glyph-name="braceright.case" horiz-adv-x="394" 
d="M70 -113v12c0 6 4 10 10 10h6c73 0 105 25 105 115v213c0 84 20 106 55 124v4c-35 17 -55 42 -55 125v212c0 91 -32 116 -105 116h-6c-6 0 -10 4 -10 10v12c0 6 4 10 10 10h13c87 0 133 -34 133 -143v-207c0 -79 11 -105 60 -120c6 -1 9 -5 9 -11v-13c0 -6 -3 -10 -9 -11
c-49 -15 -60 -41 -60 -119v-207c0 -109 -46 -142 -133 -142h-13c-7 0 -10 3 -10 10z" />
    <glyph glyph-name="bracketleft.case" horiz-adv-x="372" 
d="M135 799l1 -888h156c6 0 10 -4 10 -10v-11c0 -6 -3 -10 -10 -10h-183c-6 0 -10 4 -10 10l1 930c0 7 3 10 10 10h182c7 0 10 -3 10 -10v-11c0 -6 -3 -10 -10 -10h-157z" />
    <glyph glyph-name="bracketright.case" horiz-adv-x="372" 
d="M80 830h183c6 0 10 -4 10 -10l-1 -930c0 -7 -3 -10 -10 -10h-182c-7 0 -10 3 -10 10v11c0 6 3 10 10 10h157l-1 888h-156c-6 0 -10 4 -10 10v11c0 6 3 10 10 10z" />
    <glyph glyph-name="parenleft.case" horiz-adv-x="415" 
d="M323 839l3 -2c6 -4 6 -9 2 -14c-113 -123 -173 -283 -173 -464s60 -341 173 -464c4 -5 4 -10 -2 -14l-3 -2c-5 -4 -9 -4 -14 0c-120 113 -193 291 -193 480c0 190 73 367 193 479c5 4 9 4 14 1z" />
    <glyph glyph-name="parenright.case" horiz-adv-x="415" 
d="M92 -121l-3 2c-6 4 -6 9 -2 14c113 123 173 282 173 464c0 180 -60 341 -173 464c-4 5 -4 10 2 14l3 2c5 3 9 3 14 -1c119 -112 193 -289 193 -479c0 -189 -74 -367 -193 -480c-5 -4 -9 -4 -14 0z" />
    <glyph glyph-name="parenleft" unicode="(" horiz-adv-x="415" 
d="M323 739l3 -2c6 -4 6 -9 2 -14c-113 -123 -173 -283 -173 -464s60 -341 173 -464c4 -5 4 -10 -2 -14l-3 -2c-5 -4 -9 -4 -14 0c-120 113 -193 291 -193 480c0 190 73 367 193 479c5 4 9 4 14 1z" />
    <glyph glyph-name="parenright" unicode=")" horiz-adv-x="415" 
d="M92 -221l-3 2c-6 4 -6 9 -2 14c113 123 173 282 173 464c0 180 -60 341 -173 464c-4 5 -4 10 2 14l3 2c5 3 9 3 14 -1c119 -112 193 -289 193 -479c0 -189 -74 -367 -193 -480c-5 -4 -9 -4 -14 0z" />
    <glyph glyph-name="emdash" unicode="&#x2014;" horiz-adv-x="819" 
d="M706 285v-13c0 -6 -3 -10 -10 -10h-573c-7 0 -10 4 -10 10v13c0 7 4 10 10 10h573c7 0 10 -3 10 -10z" />
    <glyph glyph-name="endash" unicode="&#x2013;" horiz-adv-x="671" 
d="M558 286v-13c0 -6 -3 -10 -10 -10h-425c-7 0 -10 4 -10 10v13c0 7 4 10 10 10h425c7 0 10 -3 10 -10z" />
    <glyph glyph-name="hyphen" unicode="-" horiz-adv-x="536" 
d="M416 293v-13c0 -6 -3 -10 -10 -10h-276c-7 0 -10 4 -10 10v13c0 7 4 10 10 10h276c7 0 10 -3 10 -10z" />
    <glyph glyph-name="guillemetleft.case" horiz-adv-x="592" 
d="M89 338v20c0 6 2 9 7 12l181 119c7 5 12 2 12 -6v-15c0 -6 -2 -9 -7 -12l-165 -108l165 -108c5 -3 7 -6 7 -12v-14c0 -8 -5 -11 -12 -6l-181 118c-5 3 -7 6 -7 12zM503 483v-15c0 -6 -2 -9 -7 -12l-165 -108l165 -108c5 -3 7 -6 7 -12v-14c0 -8 -5 -11 -12 -6l-181 118
c-5 3 -7 6 -7 12v20c0 6 2 9 7 12l181 119c7 5 12 2 12 -6z" />
    <glyph glyph-name="guillemetright.case" horiz-adv-x="592" 
d="M89 469v14c0 8 5 11 12 6l181 -118c5 -3 7 -6 7 -12v-20c0 -6 -2 -9 -7 -12l-181 -119c-7 -5 -12 -2 -12 6v15c0 6 2 9 7 12l165 108l-165 108c-5 3 -7 6 -7 12zM315 489l181 -118c5 -3 7 -6 7 -12v-20c0 -6 -2 -9 -7 -12l-181 -119c-7 -5 -12 -2 -12 6v15c0 6 2 9 7 12
l165 108l-165 108c-5 3 -7 6 -7 12v14c0 8 5 11 12 6z" />
    <glyph glyph-name="guilsinglleft.case" horiz-adv-x="378" 
d="M289 483v-15c0 -6 -2 -9 -7 -12l-165 -108l165 -108c5 -3 7 -6 7 -12v-14c0 -8 -5 -11 -12 -6l-181 118c-5 3 -7 6 -7 12v20c0 6 2 9 7 12l181 119c7 5 12 2 12 -6z" />
    <glyph glyph-name="guilsinglright.case" horiz-adv-x="378" 
d="M101 489l181 -118c5 -3 7 -6 7 -12v-20c0 -6 -2 -9 -7 -12l-181 -119c-7 -5 -12 -2 -12 6v15c0 6 2 9 7 12l165 108l-165 108c-5 3 -7 6 -7 12v14c0 8 5 11 12 6z" />
    <glyph glyph-name="guillemetleft" unicode="&#xab;" horiz-adv-x="592" 
d="M89 238v20c0 6 2 9 7 12l181 119c7 5 12 2 12 -6v-15c0 -6 -2 -9 -7 -12l-165 -108l165 -108c5 -3 7 -6 7 -12v-14c0 -8 -5 -11 -12 -6l-181 118c-5 3 -7 6 -7 12zM503 383v-15c0 -6 -2 -9 -7 -12l-165 -108l165 -108c5 -3 7 -6 7 -12v-14c0 -8 -5 -11 -12 -6l-181 118
c-5 3 -7 6 -7 12v20c0 6 2 9 7 12l181 119c7 5 12 2 12 -6z" />
    <glyph glyph-name="guillemetright" unicode="&#xbb;" horiz-adv-x="592" 
d="M89 369v14c0 8 5 11 12 6l181 -118c5 -3 7 -6 7 -12v-20c0 -6 -2 -9 -7 -12l-181 -119c-7 -5 -12 -2 -12 6v15c0 6 2 9 7 12l165 108l-165 108c-5 3 -7 6 -7 12zM315 389l181 -118c5 -3 7 -6 7 -12v-20c0 -6 -2 -9 -7 -12l-181 -119c-7 -5 -12 -2 -12 6v15c0 6 2 9 7 12
l165 108l-165 108c-5 3 -7 6 -7 12v14c0 8 5 11 12 6z" />
    <glyph glyph-name="guilsinglleft" unicode="&#x2039;" horiz-adv-x="378" 
d="M289 383v-15c0 -6 -2 -9 -7 -12l-165 -108l165 -108c5 -3 7 -6 7 -12v-14c0 -8 -5 -11 -12 -6l-181 118c-5 3 -7 6 -7 12v20c0 6 2 9 7 12l181 119c7 5 12 2 12 -6z" />
    <glyph glyph-name="guilsinglright" unicode="&#x203a;" horiz-adv-x="378" 
d="M101 389l181 -118c5 -3 7 -6 7 -12v-20c0 -6 -2 -9 -7 -12l-181 -119c-7 -5 -12 -2 -12 6v15c0 6 2 9 7 12l165 108l-165 108c-5 3 -7 6 -7 12v14c0 8 5 11 12 6z" />
    <glyph glyph-name="quotedblbase" unicode="&#x201e;" horiz-adv-x="300" 
d="M128 77h26c7 0 10 -3 10 -10v-49c0 -60 -15 -92 -39 -121c-4 -5 -9 -6 -14 -2c-4 2 -4 6 0 12c22 33 27 66 12 88c-3 4 -5 7 -5 12v60c0 6 4 10 10 10z" />
    <glyph glyph-name="quotedblleft" unicode="&#x201c;" horiz-adv-x="322" 
d="M73 553v49c0 60 15 92 39 121c4 5 9 6 14 2c4 -2 4 -6 0 -12c-22 -33 -27 -66 -12 -88c3 -4 5 -7 5 -12v-60c0 -6 -3 -10 -10 -10h-26c-6 0 -10 4 -10 10zM198 553v49c0 60 15 92 39 121c4 5 9 6 14 2c4 -2 4 -6 0 -12c-22 -33 -27 -66 -12 -88c3 -4 5 -7 5 -12v-60
c0 -6 -3 -10 -10 -10h-26c-6 0 -10 4 -10 10z" />
    <glyph glyph-name="quotedblright" unicode="&#x201d;" horiz-adv-x="306" 
d="M124 708v-48c0 -61 -14 -92 -39 -122c-4 -5 -9 -6 -14 -2c-4 2 -4 6 0 12c22 33 28 66 13 88c-3 4 -5 7 -5 12v60c0 6 4 10 10 10h25c6 0 10 -3 10 -10zM249 708v-48c0 -61 -14 -92 -39 -122c-4 -5 -9 -6 -14 -2c-4 2 -4 6 0 12c22 33 28 66 13 88c-3 4 -5 7 -5 12v60
c0 6 4 10 10 10h25c6 0 10 -3 10 -10z" />
    <glyph glyph-name="quoteleft" unicode="&#x2018;" horiz-adv-x="197" 
d="M73 553v49c0 60 14 92 39 121c4 5 9 6 14 3c4 -3 4 -7 0 -12c-22 -34 -27 -67 -12 -89c2 -4 4 -7 4 -12v-60c0 -6 -3 -10 -10 -10h-25c-6 0 -10 4 -10 10z" />
    <glyph glyph-name="quoteright" unicode="&#x2019;" horiz-adv-x="180" 
d="M124 710v-49c0 -60 -15 -91 -39 -121c-4 -5 -9 -5 -14 -2c-4 2 -4 6 0 12c22 33 27 66 12 88c-3 4 -5 7 -5 12v60c0 6 4 10 10 10h26c6 0 10 -3 10 -10z" />
    <glyph glyph-name="quotesinglbase" unicode="&#x201a;" horiz-adv-x="300" 
d="M164 67v-49c0 -60 -15 -92 -39 -121c-4 -5 -9 -6 -14 -2c-4 2 -4 6 0 12c22 33 27 66 12 88c-3 4 -5 7 -5 12v60c0 6 4 10 10 10h26c6 0 10 -3 10 -10z" />
    <glyph glyph-name="space" unicode=" " horiz-adv-x="223" 
 />
    <glyph glyph-name="cent" unicode="&#xa2;" horiz-adv-x="513" 
d="M284 113c79 0 132 38 159 93c2 6 6 8 11 8h18c8 0 11 -5 8 -12c-31 -67 -90 -117 -181 -122l3 -118c0 -6 -4 -10 -10 -10h-13c-6 0 -10 4 -10 10l2 117c-133 5 -215 112 -215 262c0 155 83 263 215 269l-2 121c0 6 4 10 10 10h13c6 0 10 -4 10 -10l-3 -122
c91 -5 152 -56 182 -128c2 -7 -1 -12 -8 -12h-18c-5 0 -9 2 -11 8c-28 60 -82 99 -162 99c-125 0 -189 -103 -189 -234c0 -127 64 -229 191 -229z" />
    <glyph glyph-name="currency" unicode="&#xa4;" horiz-adv-x="669" 
d="M512 419l-60 -60c22 -26 34 -59 34 -96s-13 -71 -35 -97c4 -4 4 -8 -1 -13l-7 -8c-5 -4 -9 -5 -13 -1c-26 -20 -60 -33 -96 -33s-69 12 -95 33l-60 -61c-5 -4 -9 -5 -14 0l-8 8c-5 5 -5 9 0 14l60 61c-22 26 -35 60 -35 97s13 70 34 96c-4 4 -4 8 1 13l8 9c5 4 9 5 13 1
c26 21 60 34 96 34c37 0 71 -13 97 -35l60 59c5 5 9 5 14 0l7 -7c5 -5 5 -9 0 -14zM391 227l40 -40c17 21 27 47 27 76c0 68 -57 124 -124 124c-28 0 -54 -10 -75 -26l42 -43c5 -5 5 -9 0 -14l-8 -8c-5 -5 -9 -5 -14 0l-42 42c-16 -20 -26 -47 -26 -75
c0 -67 55 -123 123 -123c28 0 54 10 75 25l-40 40c-5 5 -5 9 0 14l8 8c5 5 9 4 14 0z" />
    <glyph glyph-name="dollar" unicode="$" horiz-adv-x="594" 
d="M293 396l47 -14c138 -40 206 -92 206 -184c0 -104 -88 -170 -229 -170h-3l2 -114c0 -6 -4 -10 -10 -10h-14c-6 0 -10 4 -10 10l3 115c-146 11 -213 93 -233 160c-2 7 1 11 9 11h16c6 0 10 -2 12 -8c23 -60 85 -133 229 -133c115 0 191 49 191 134c0 80 -67 122 -189 158
l-47 14c-122 36 -193 76 -194 165c-1 94 85 153 206 157l-3 120c0 6 4 10 10 10h14c6 0 10 -4 10 -10l-2 -120c126 -7 190 -82 213 -136c3 -6 -1 -11 -8 -11h-17c-5 0 -9 2 -12 7c-24 48 -83 109 -198 109c-107 0 -177 -48 -177 -121c0 -78 68 -107 178 -139z" />
    <glyph glyph-name="euro" unicode="&#x20ac;" horiz-adv-x="640" 
d="M442 28c36 0 69 5 103 17c6 2 11 -1 13 -7l3 -12c1 -6 -1 -10 -7 -13c-38 -15 -75 -21 -114 -21c-172 0 -292 122 -316 300l-65 -1c-6 0 -10 4 -10 10v11c0 7 3 10 10 10l62 1c-1 12 -1 24 -1 36c0 17 1 33 2 49l-63 -1c-6 0 -10 4 -10 10v11c0 7 3 10 10 10l67 1
c29 174 152 288 320 288c36 0 71 -5 108 -17c6 -2 8 -6 7 -12l-4 -15c-2 -7 -6 -9 -13 -7c-32 10 -65 16 -100 16c-146 0 -254 -97 -281 -253l240 3c6 0 10 -4 10 -10v-11c0 -7 -3 -10 -10 -10l-244 -3c-1 -15 -2 -31 -2 -47c0 -13 0 -25 1 -38l245 3c6 0 10 -4 10 -10v-11
c0 -7 -3 -10 -10 -10l-241 -3c23 -159 130 -264 280 -264z" />
    <glyph glyph-name="sterling" unicode="&#xa3;" horiz-adv-x="615" 
d="M136 34l392 1c6 0 10 -4 10 -10v-16c0 -6 -4 -10 -10 -10l-441 1c-7 0 -10 3 -10 10v13c0 6 2 9 7 12c55 38 67 67 67 146v152h-44c-7 0 -10 4 -10 10v13c0 7 4 10 10 10h44v148c0 136 77 209 191 209c103 0 169 -62 193 -155c2 -7 -1 -11 -8 -11h-18c-6 0 -10 3 -11 9
c-18 72 -70 123 -158 123c-96 0 -153 -62 -152 -178v-145h196c7 0 10 -3 10 -10v-13c0 -7 -3 -10 -10 -10h-196v-159c0 -72 -18 -109 -52 -136v-4z" />
    <glyph glyph-name="yen" unicode="&#xa5;" 
d="M323 355h104c7 0 10 -3 10 -10v-11c0 -6 -3 -10 -10 -10h-121l1 -77h120c7 0 10 -3 10 -10v-11c0 -6 -3 -10 -10 -10h-120l1 -206c0 -6 -4 -10 -10 -10h-21c-6 0 -10 4 -10 10l1 206h-117c-7 0 -10 4 -10 10v11c0 6 4 10 10 10h117l1 77h-118c-7 0 -10 4 -10 10v11
c0 6 3 10 10 10h102l-227 351c-5 7 -2 12 6 12h18c6 0 9 -2 12 -7l224 -342h4l223 342c3 5 6 7 12 7h17c8 0 11 -5 6 -12z" />
    <glyph glyph-name="asciitilde" unicode="~" horiz-adv-x="510" 
d="M189 346c63 0 80 -74 130 -74c27 0 35 19 36 48c0 6 3 10 10 10h11c6 0 10 -4 10 -10c-3 -44 -23 -78 -67 -78c-64 0 -81 74 -130 74c-28 0 -38 -21 -40 -48c0 -7 -3 -10 -10 -10h-10c-6 0 -10 3 -10 9c3 42 23 79 70 79z" />
    <glyph glyph-name="divide" unicode="&#xf7;" horiz-adv-x="685" 
d="M378 457v-58c0 -6 -3 -10 -10 -10h-23c-6 0 -10 4 -10 10v58c0 6 4 10 10 10h23c6 0 10 -3 10 -10zM564 275v-12c0 -6 -3 -10 -10 -10h-424c-6 0 -10 4 -10 10v12c0 6 4 10 10 10h424c6 0 10 -3 10 -10zM378 131v-59c0 -6 -3 -10 -10 -10h-23c-6 0 -10 4 -10 10v59
c0 7 4 10 10 10h23c6 0 10 -3 10 -10z" />
    <glyph glyph-name="equal" unicode="=" horiz-adv-x="676" 
d="M558 375v-13c0 -6 -3 -10 -10 -10h-418c-6 0 -10 4 -10 10v13c0 7 4 10 10 10h418c6 0 10 -3 10 -10zM558 168v-12c0 -6 -3 -10 -10 -10h-418c-6 0 -10 4 -10 10v12c0 6 4 10 10 10h418c6 0 10 -3 10 -10z" />
    <glyph glyph-name="greater" unicode="&#x3e;" horiz-adv-x="715" 
d="M132 491l456 -211c5 -2 7 -6 7 -11v-17c0 -5 -2 -9 -7 -11l-456 -212c-7 -3 -12 0 -12 8v13c0 5 2 9 7 11l432 199l-432 198c-5 2 -7 6 -7 11v14c0 8 5 11 12 8z" />
    <glyph glyph-name="greaterequal" unicode="&#x2265;" horiz-adv-x="660" 
d="M131 490l401 -146c5 -2 8 -6 8 -12v-11c0 -6 -3 -10 -8 -12l-401 -138c-7 -2 -11 1 -11 8v10c0 6 3 10 8 12l370 126l-370 132c-5 2 -8 6 -8 12v11c0 7 5 10 11 8zM120 72v11c0 7 4 10 10 10h400c7 0 10 -3 10 -10v-11c0 -6 -3 -10 -10 -10h-400c-7 0 -10 4 -10 10z" />
    <glyph glyph-name="infinity" unicode="&#x221e;" horiz-adv-x="1082" 
d="M775 498c114 0 187 -85 187 -201c0 -113 -71 -199 -186 -199c-95 0 -160 59 -237 171c-75 -109 -140 -171 -236 -171c-113 0 -183 86 -183 199c0 116 73 201 188 201c99 0 159 -64 234 -175c73 108 134 175 233 175zM306 133c85 0 150 65 212 165
c-69 103 -128 165 -212 165c-88 0 -150 -70 -150 -164s60 -166 150 -166zM775 132c91 0 149 70 149 163c0 96 -61 167 -149 167c-85 0 -145 -66 -212 -164c64 -104 128 -166 212 -166z" />
    <glyph glyph-name="less" unicode="&#x3c;" horiz-adv-x="715" 
d="M595 483v-14c0 -5 -2 -9 -7 -11l-432 -198l432 -199c5 -2 7 -6 7 -11v-13c0 -8 -5 -11 -12 -8l-456 211c-5 2 -7 6 -7 11v17c0 5 2 9 7 11l456 212c7 3 12 0 12 -8z" />
    <glyph glyph-name="lessequal" unicode="&#x2264;" horiz-adv-x="660" 
d="M540 482v-11c0 -6 -3 -10 -8 -12l-370 -132l370 -126c5 -2 8 -6 8 -12v-10c0 -7 -4 -10 -11 -8l-401 138c-5 2 -8 6 -8 12v11c0 6 3 10 8 12l401 146c6 2 11 -1 11 -8zM120 72v11c0 7 4 10 10 10h400c7 0 10 -3 10 -10v-11c0 -6 -3 -10 -10 -10h-400c-7 0 -10 4 -10 10z
" />
    <glyph glyph-name="minus" unicode="&#x2212;" horiz-adv-x="685" 
d="M574 276v-13c0 -6 -3 -10 -10 -10h-424c-6 0 -10 4 -10 10v13c0 7 4 10 10 10h424c6 0 10 -3 10 -10z" />
    <glyph glyph-name="multiply" unicode="&#xd7;" horiz-adv-x="609" 
d="M391 250l91 -92c5 -5 5 -9 0 -14l-72 -72c-5 -5 -9 -5 -14 0l-91 92l-92 -92c-5 -5 -9 -5 -14 0l-72 72c-5 5 -5 9 0 14l92 92l-92 91c-5 5 -5 9 0 14l72 72c5 5 9 5 14 0l92 -91l91 91c5 5 9 5 14 0l72 -72c5 -5 5 -9 0 -14z" />
    <glyph glyph-name="notequal" unicode="&#x2260;" horiz-adv-x="676" 
d="M394 352l-82 -174h236c6 0 10 -3 10 -10v-12c0 -6 -3 -10 -10 -10h-251l-80 -171c-2 -5 -6 -7 -11 -7h-14c-8 0 -11 5 -7 12l78 166h-133c-6 0 -10 4 -10 10v12c0 6 4 10 10 10h148l82 174h-230c-7 0 -10 4 -10 10v13c0 7 3 10 10 10h245l72 152c2 5 6 7 11 7h13
c8 0 11 -5 7 -12l-69 -147h139c7 0 10 -3 10 -10v-13c0 -7 -3 -10 -10 -10h-154z" />
    <glyph glyph-name="percent" unicode="%" horiz-adv-x="723" 
d="M162 749c62 0 113 -51 113 -113c0 -63 -51 -113 -113 -113s-113 50 -113 113c0 62 51 113 113 113zM579 719l-461 -712c-3 -5 -6 -7 -12 -7h-15c-8 0 -11 5 -6 12l461 712c3 5 6 7 12 7h15c8 0 11 -5 6 -12zM162 719c-46 0 -83 -37 -83 -83s37 -83 83 -83
c45 0 84 37 84 83s-39 83 -84 83zM562 231c62 0 113 -51 113 -113c0 -63 -51 -114 -113 -114c-63 0 -114 51 -114 114c0 62 51 113 114 113zM562 201c-46 0 -83 -37 -83 -83s37 -83 83 -83c45 0 83 37 83 83s-38 83 -83 83z" />
    <glyph glyph-name="perthousand" unicode="&#x2030;" horiz-adv-x="986" 
d="M162 749c62 0 113 -51 113 -113c0 -63 -51 -113 -113 -113s-113 50 -113 113c0 62 51 113 113 113zM579 719l-461 -712c-3 -5 -6 -7 -12 -7h-15c-8 0 -11 5 -6 12l461 712c3 5 6 7 12 7h15c8 0 11 -5 6 -12zM162 719c-46 0 -83 -37 -83 -83s37 -83 83 -83
c45 0 84 37 84 83s-39 83 -84 83zM562 231c62 0 113 -51 113 -113c0 -63 -51 -114 -113 -114c-63 0 -114 51 -114 114c0 62 51 113 114 113zM824 231c62 0 113 -51 113 -113c0 -63 -51 -114 -113 -114c-63 0 -113 51 -113 114c0 62 50 113 113 113zM562 201
c-46 0 -83 -37 -83 -83s37 -83 83 -83c45 0 83 37 83 83s-38 83 -83 83zM824 201c-46 0 -83 -37 -83 -83s37 -83 83 -83c45 0 83 37 83 83s-38 83 -83 83z" />
    <glyph glyph-name="plus" unicode="+" horiz-adv-x="697" 
d="M577 263v-11c0 -7 -3 -10 -10 -10h-201v-203c0 -6 -3 -10 -10 -10h-13c-7 0 -10 4 -10 10v203h-203c-6 0 -10 4 -10 10v11c0 6 4 10 10 10h203v203c0 6 4 10 10 10h13c7 0 10 -3 10 -10v-203h201c6 0 10 -4 10 -10z" />
    <glyph glyph-name="apple" unicode="&#xf8ff;" horiz-adv-x="591" 
d="M394 534c6 1 10 -3 10 -9c-2 -28 -12 -54 -30 -74c-16 -22 -43 -38 -69 -39c-6 -1 -10 3 -10 9c-2 28 14 56 28 74c18 21 45 36 71 39zM401 405c18 0 63 -4 93 -44c4 -6 3 -11 -3 -15c-16 -11 -50 -43 -50 -97c2 -62 46 -93 64 -104c6 -3 8 -7 6 -13
c-5 -13 -15 -39 -35 -66c-21 -33 -45 -67 -82 -67c-34 0 -47 22 -87 22c-43 0 -56 -22 -88 -22c-37 0 -63 35 -86 68c-30 43 -55 111 -56 175c0 34 7 67 23 96c24 39 65 66 111 67c35 1 66 -24 88 -24c20 0 59 24 102 24z" />
    <glyph glyph-name="bar" unicode="|" horiz-adv-x="334" 
d="M184 765l1 -1000c0 -6 -4 -10 -10 -10h-16c-6 0 -10 4 -10 10l1 1000c0 7 3 10 10 10h14c7 0 10 -3 10 -10z" />
    <glyph glyph-name="at" unicode="@" horiz-adv-x="839" 
d="M437 615c196 0 325 -130 325 -318c0 -114 -48 -182 -134 -182c-64 0 -97 38 -107 84h-4c-18 -56 -66 -83 -115 -83c-75 0 -124 61 -124 145c0 88 53 152 130 152c42 0 78 -19 99 -59h3v42c0 6 4 10 10 10h10c7 0 10 -3 10 -10v-122c0 -108 45 -128 88 -128
c73 0 102 56 102 145c0 182 -120 292 -293 292c-181 0 -327 -120 -327 -316c0 -184 130 -318 331 -318c31 0 80 3 127 17c7 2 11 -1 12 -8l1 -9c0 -6 -3 -10 -9 -12c-53 -16 -105 -19 -134 -19c-209 0 -361 138 -361 347c0 214 159 350 360 350zM410 384
c-62 0 -101 -49 -101 -120c0 -74 41 -118 99 -118s97 41 100 113v16c-4 73 -46 109 -98 109z" />
    <glyph glyph-name="ampersand" unicode="&#x26;" horiz-adv-x="662" 
d="M597 0h-25c-5 0 -8 2 -12 6l-56 69c-45 -55 -115 -83 -201 -83c-137 0 -226 73 -226 181c0 89 62 151 171 216c-45 54 -96 120 -96 197c0 87 63 152 163 152c102 0 156 -68 156 -151c0 -88 -62 -141 -168 -208l198 -242c12 29 19 63 19 103c0 16 -2 38 -5 66
c-1 7 2 11 9 11h15c6 0 10 -3 10 -9c4 -27 6 -50 6 -72c0 -51 -11 -94 -30 -129l78 -95c5 -6 3 -12 -6 -12zM314 707c-76 0 -126 -54 -126 -121c0 -68 52 -133 94 -182c92 59 154 106 154 184c0 68 -47 119 -122 119zM306 24c77 0 139 26 176 78l-212 262
c-109 -67 -156 -121 -156 -191c0 -86 72 -149 192 -149z" />
    <glyph glyph-name="paragraph" unicode="&#xb6;" horiz-adv-x="650" 
d="M261 616h106c7 0 10 -3 10 -10l1 -696c0 -6 -4 -10 -10 -10h-17c-7 0 -10 3 -10 10v321h-80c-126 0 -205 81 -205 194c0 112 79 191 205 191zM536 606l1 -696c0 -6 -4 -10 -10 -10h-18c-6 0 -10 3 -10 10v696c0 6 4 10 10 10h17c7 0 10 -3 10 -10z" />
    <glyph glyph-name="copyright" unicode="&#xa9;" horiz-adv-x="876" 
d="M438 722c200 0 361 -143 361 -362c0 -220 -161 -364 -361 -364c-199 0 -361 144 -361 364c0 219 162 362 361 362zM439 695c-184 0 -335 -133 -335 -335c0 -204 151 -336 335 -336c183 0 333 132 333 336c0 202 -150 335 -333 335zM442 572c81 0 135 -43 162 -104
c2 -7 -1 -12 -8 -12h-9c-5 0 -9 2 -11 8c-24 49 -68 81 -135 81c-104 0 -158 -83 -158 -186c0 -104 54 -189 159 -189c67 0 111 33 134 80c2 5 6 7 11 7h8c8 0 11 -5 8 -12c-27 -60 -81 -102 -162 -102c-115 0 -187 89 -187 215s73 214 188 214z" />
    <glyph glyph-name="registered" unicode="&#xae;" horiz-adv-x="482" 
d="M241 742c88 0 158 -71 158 -159c0 -86 -70 -158 -158 -158c-86 0 -158 72 -158 158c0 88 72 159 158 159zM241 450c73 0 134 60 134 134s-61 134 -134 134c-74 0 -134 -60 -134 -134s60 -134 134 -134zM300 615c0 -21 -14 -37 -38 -41l36 -52c4 -7 2 -12 -7 -12h-2
c-6 0 -9 2 -12 6l-40 57h-26v-53c0 -6 -3 -10 -10 -10h-2c-7 0 -10 4 -10 10v126c0 6 4 10 10 10h52c30 0 49 -18 49 -41zM211 592h38c19 0 29 8 29 21c0 15 -11 24 -29 24h-38v-45z" />
    <glyph glyph-name="section" unicode="&#xa7;" horiz-adv-x="531" 
d="M376 220c52 -29 78 -63 78 -117c0 -87 -68 -143 -176 -143c-95 0 -168 45 -197 131c-3 7 1 11 8 11h17c6 0 10 -3 12 -8c25 -63 85 -99 162 -99c74 0 136 34 136 104c0 62 -48 90 -146 126l-19 6c-91 34 -151 62 -151 136c0 58 38 101 92 127c-57 25 -92 55 -92 113
c0 82 68 134 168 134c105 0 154 -57 176 -115c3 -7 -1 -11 -8 -11h-16c-5 0 -9 2 -11 7c-24 49 -65 85 -142 85c-78 0 -130 -37 -130 -96c0 -60 53 -82 135 -110l20 -7c116 -38 162 -82 162 -151c0 -56 -31 -99 -78 -123zM272 263l20 -7c17 -6 33 -12 48 -19
c43 21 76 52 76 101c0 63 -54 92 -146 125l-40 15c-54 -22 -93 -56 -93 -107c0 -60 54 -79 135 -108z" />
    <glyph glyph-name="trademark" unicode="&#x2122;" horiz-adv-x="629" 
d="M272 708v-3c0 -7 -3 -10 -10 -10h-73l1 -220c0 -6 -4 -10 -10 -10h-7c-6 0 -10 4 -10 10v220h-73c-6 0 -10 4 -10 10v3c0 6 4 10 10 10h172c6 0 10 -3 10 -10zM542 708l7 -233c0 -6 -4 -10 -10 -10h-5c-7 0 -10 3 -10 10l-5 204h-1l-76 -206c-2 -5 -6 -8 -12 -8h-9
c-5 0 -9 3 -11 8l-77 206h-1l-4 -204c0 -7 -3 -10 -10 -10h-5c-6 0 -10 4 -10 10l6 233c0 7 3 10 10 10h17c6 0 10 -3 12 -8l76 -207h3l78 207c2 5 6 8 11 8h16c7 0 10 -3 10 -10z" />
    <glyph glyph-name="degree" unicode="&#xb0;" horiz-adv-x="386" 
d="M193 742c62 0 113 -51 113 -113c0 -63 -51 -113 -113 -113s-113 50 -113 113c0 62 51 113 113 113zM193 712c-46 0 -83 -37 -83 -83s37 -83 83 -83c45 0 84 37 84 83s-39 83 -84 83z" />
    <glyph glyph-name="asciicircum" unicode="^" horiz-adv-x="712" 
d="M491 189h-14c-6 0 -10 3 -11 9l-110 405l-111 -405c-1 -6 -5 -9 -11 -9h-13c-8 0 -11 4 -9 11l126 456c1 5 5 8 11 8h15c6 0 10 -3 11 -9l125 -455c2 -7 -1 -11 -9 -11z" />
    <glyph glyph-name="dagger" unicode="&#x2020;" horiz-adv-x="566" 
d="M446 299v-9c0 -6 -3 -10 -10 -10h-138v-460c0 -7 -3 -10 -10 -10h-10c-6 0 -10 4 -10 10l1 460h-139c-7 0 -10 4 -10 10v9c0 6 4 10 10 10h139v172c0 7 3 10 10 10h9c6 0 10 -3 10 -10v-172h138c7 0 10 -3 10 -10z" />
    <glyph glyph-name="daggerdbl" unicode="&#x2021;" horiz-adv-x="566" 
d="M298 280v-213h138c7 0 10 -3 10 -10v-9c0 -6 -3 -10 -10 -10h-138v-218c0 -6 -3 -10 -10 -10h-10c-6 0 -10 4 -10 10v218h-138c-6 0 -10 4 -10 10v9c0 6 4 10 10 10h138l1 213h-139c-7 0 -10 4 -10 10v9c0 6 4 10 10 10h139v172c0 7 3 10 10 10h9c6 0 10 -3 10 -10v-172
h138c7 0 10 -3 10 -10v-9c0 -6 -3 -10 -10 -10h-138z" />
    <glyph glyph-name="acute" unicode="&#xb4;" horiz-adv-x="338" 
d="M223 741l-90 -106c-4 -4 -7 -6 -12 -6h-2c-8 0 -11 5 -6 12l77 106c3 4 6 6 12 6h15c9 0 11 -6 6 -12z" />
    <glyph glyph-name="breve" unicode="&#x2d8;" horiz-adv-x="419" 
d="M314 722v-2c0 -66 -45 -97 -105 -97s-105 31 -105 97v2c0 7 4 10 10 10h7c6 0 10 -3 10 -10v-2c0 -52 33 -71 78 -71s78 19 78 71v2c0 7 4 10 10 10h7c6 0 10 -3 10 -10z" />
    <glyph glyph-name="caron" unicode="&#x2c7;" horiz-adv-x="428" 
d="M295 746h13c9 0 11 -6 6 -12l-83 -102c-4 -4 -7 -6 -12 -6h-9c-5 0 -8 2 -12 6l-84 102c-5 6 -3 12 6 12h14c6 0 9 -2 12 -6l66 -91h4l66 91c4 4 7 6 13 6z" />
    <glyph glyph-name="caron.alt" horiz-adv-x="256" 
d="M150 751l-20 -151c-1 -6 -4 -9 -10 -9h-5c-7 0 -11 4 -10 11l17 151c1 6 4 9 10 9h8c7 0 10 -4 10 -11z" />
    <glyph glyph-name="cedilla" unicode="&#xb8;" horiz-adv-x="381" 
d="M198 -1l-18 -58c53 -6 96 -31 96 -84c0 -46 -33 -84 -95 -84c-22 0 -45 5 -69 17c-5 2 -7 7 -5 13l1 3c3 6 7 8 13 5c20 -9 44 -13 61 -13c42 0 67 23 67 57c0 37 -30 62 -90 65c-8 0 -11 4 -9 11l21 71c1 5 5 8 11 8h8c7 0 11 -4 8 -11z" />
    <glyph glyph-name="circumflex" unicode="&#x2c6;" horiz-adv-x="428" 
d="M230 743l84 -102c5 -6 3 -12 -6 -12h-13c-6 0 -9 2 -13 6l-66 91h-4l-66 -91c-3 -4 -6 -6 -12 -6h-14c-9 0 -11 6 -6 12l84 102c4 4 7 6 12 6h8c5 0 8 -2 12 -6z" />
    <glyph glyph-name="dieresis" unicode="&#xa8;" horiz-adv-x="358" 
d="M134 724v-52c0 -6 -3 -10 -10 -10h-10c-6 0 -10 4 -10 10v52c0 7 4 10 10 10h10c7 0 10 -3 10 -10zM254 724v-52c0 -6 -3 -10 -10 -10h-10c-6 0 -10 4 -10 10v52c0 7 4 10 10 10h10c7 0 10 -3 10 -10z" />
    <glyph glyph-name="dotaccent" unicode="&#x2d9;" horiz-adv-x="245" 
d="M141 724v-52c0 -6 -3 -10 -10 -10h-17c-7 0 -10 4 -10 10v52c0 7 4 10 10 10h17c7 0 10 -3 10 -10z" />
    <glyph glyph-name="grave" unicode="`" horiz-adv-x="338" 
d="M120 753h16c6 0 9 -2 12 -6l76 -106c5 -7 2 -12 -6 -12h-2c-5 0 -8 2 -12 6l-90 106c-5 6 -3 12 6 12z" />
    <glyph glyph-name="hungarumlaut" unicode="&#x2dd;" horiz-adv-x="459" 
d="M223 741l-90 -106c-4 -4 -7 -6 -12 -6h-2c-8 0 -11 5 -6 12l77 106c3 4 6 6 12 6h15c9 0 11 -6 6 -12zM344 741l-89 -106c-4 -4 -7 -6 -12 -6h-2c-8 0 -11 5 -6 12l76 106c3 4 6 6 12 6h15c9 0 11 -6 6 -12z" />
    <glyph glyph-name="macron" unicode="&#xaf;" horiz-adv-x="393" 
d="M288 686v-6c0 -6 -3 -10 -10 -10h-164c-7 0 -10 4 -10 10v6c0 7 4 10 10 10h164c7 0 10 -3 10 -10z" />
    <glyph glyph-name="ring" unicode="&#x2da;" horiz-adv-x="355" 
d="M178 758c40 0 73 -29 73 -73c0 -45 -33 -74 -73 -74s-74 29 -74 74c0 44 34 73 74 73zM178 736c-28 0 -51 -20 -51 -51s23 -51 51 -51s51 20 51 51s-23 51 -51 51z" />
    <glyph glyph-name="tilde" unicode="&#x2dc;" horiz-adv-x="430" 
d="M162 727c52 0 67 -65 108 -65c22 0 29 16 30 41c0 6 3 10 10 10h5c6 0 10 -4 10 -10c-3 -38 -19 -67 -55 -67c-53 0 -67 65 -108 65c-22 0 -31 -18 -33 -41c0 -7 -3 -10 -10 -10h-5c-6 0 -10 4 -10 10c3 36 20 67 58 67z" />
    </font>
</defs>
</svg>
